<?xml version="1.0" encoding="utf-8"?>
<!-- Generator: Adobe Illustrator 22.1.0, SVG Export Plug-In . SVG Version: 6.00 Build 0)  -->
<svg version="1.1" id="Livello_1" xmlns="http://www.w3.org/2000/svg" xmlns:xlink="http://www.w3.org/1999/xlink" x="0px" y="0px"
	 viewBox="0 0 48 60" style="enable-background:new 0 0 48 60;" xml:space="preserve">
<style type="text/css">
	.st0{fill:#858585;}
</style>
<g>
	<path class="st0" d="M39.7,19.6L29.5,9.4c-0.1-0.1-0.2-0.2-0.3-0.2c-0.1-0.1-0.3-0.1-0.4-0.1H10.4c-0.6,0-1,0.4-1,1V51
		c0,0.6,0.4,1,1,1H39c0.6,0,1-0.4,1-1V20.3c0-0.1,0-0.3-0.1-0.4C39.8,19.8,39.8,19.7,39.7,19.6z M29.8,12.6l6.7,6.7h-6.7V12.6z
		 M38,50H11.4V11.1h16.3v9.2c0,0.6,0.4,1,1,1H38V50z"/>
	<path class="st0" d="M25.7,25.4c0-0.6-0.4-1.2-1-1.2c-0.6,0-1,0.6-1,1.2v7.2h-7.2c-0.6,0-1,0.4-1,1c0,0.6,0.4,1,1,1h7.2v7.2
		c0,0.6,0.4,1,1,1c0.6,0,1-0.4,1-1v-7.2h7.2c0.6,0,1-0.4,1-1c0-0.6-0.4-1-1-1h-7.2V25.4z"/>
</g>
</svg>
