<?xml version="1.0" encoding="utf-8"?>
<!-- Generator: Adobe Illustrator 22.1.0, SVG Export Plug-In . SVG Version: 6.00 Build 0)  -->
<svg version="1.1" id="Livello_1" xmlns="http://www.w3.org/2000/svg" xmlns:xlink="http://www.w3.org/1999/xlink" x="0px" y="0px"
	 viewBox="0 0 47.7 59.6" style="enable-background:new 0 0 47.7 59.6;" xml:space="preserve">
<style type="text/css">
	.st0{fill:#858585;}
</style>
<g>
	<g>
		<path class="st0" d="M32.2,25.4c-0.8,0-1.4-0.6-1.4-1.4v-0.5h-14V24c0,0.8-0.6,1.4-1.4,1.4c-0.8,0-1.4-0.6-1.4-1.4v-1.9
			c0-0.8,0.6-1.4,1.4-1.4h16.8c0.8,0,1.4,0.6,1.4,1.4V24C33.6,24.7,33,25.4,32.2,25.4z"/>
	</g>
	<g>
		<path class="st0" d="M23.8,40.3c-0.8,0-1.4-0.6-1.4-1.4V22.1c0-0.8,0.6-1.4,1.4-1.4c0.8,0,1.4,0.6,1.4,1.4v16.8
			C25.2,39.7,24.6,40.3,23.8,40.3z"/>
	</g>
	<g>
		<path class="st0" d="M27.5,40.3h-7.5c-0.8,0-1.4-0.6-1.4-1.4c0-0.8,0.6-1.4,1.4-1.4h7.5c0.8,0,1.4,0.6,1.4,1.4
			C28.9,39.7,28.3,40.3,27.5,40.3z"/>
	</g>
	<g>
		<path class="st0" d="M7,19.3c-3.1,0-5.6-2.5-5.6-5.6S3.9,8.1,7,8.1s5.6,2.5,5.6,5.6S10.1,19.3,7,19.3z M7,10.9
			c-1.5,0-2.8,1.3-2.8,2.8s1.3,2.8,2.8,2.8s2.8-1.3,2.8-2.8S8.5,10.9,7,10.9z"/>
	</g>
	<g>
		<path class="st0" d="M40.6,19.3c-3.1,0-5.6-2.5-5.6-5.6s2.5-5.6,5.6-5.6s5.6,2.5,5.6,5.6S43.7,19.3,40.6,19.3z M40.6,10.9
			c-1.5,0-2.8,1.3-2.8,2.8s1.3,2.8,2.8,2.8s2.8-1.3,2.8-2.8S42.2,10.9,40.6,10.9z"/>
	</g>
	<g>
		<path class="st0" d="M7,52.9c-3.1,0-5.6-2.5-5.6-5.6s2.5-5.6,5.6-5.6s5.6,2.5,5.6,5.6S10.1,52.9,7,52.9z M7,44.5
			c-1.5,0-2.8,1.3-2.8,2.8s1.3,2.8,2.8,2.8s2.8-1.3,2.8-2.8S8.5,44.5,7,44.5z"/>
	</g>
	<g>
		<path class="st0" d="M40.6,52.9c-3.1,0-5.6-2.5-5.6-5.6s2.5-5.6,5.6-5.6s5.6,2.5,5.6,5.6S43.7,52.9,40.6,52.9z M40.6,44.5
			c-1.5,0-2.8,1.3-2.8,2.8s1.3,2.8,2.8,2.8s2.8-1.3,2.8-2.8S42.2,44.5,40.6,44.5z"/>
	</g>
	<g>
		<path class="st0" d="M36.5,49.2H11.1c-0.4,0-0.8-0.2-1.1-0.5c-0.3-0.3-0.4-0.7-0.3-1.1c0,0,0-0.1,0-0.1c0-0.1,0-0.1,0-0.2
			c0-1.5-1.3-2.8-2.8-2.8c-0.1,0-0.1,0-0.2,0c0,0-0.1,0-0.1,0c-0.4,0-0.8-0.1-1.1-0.3c-0.3-0.3-0.5-0.6-0.5-1.1V17.8
			c0-0.4,0.2-0.8,0.5-1.1c0.3-0.3,0.7-0.4,1.1-0.3c0,0,0.1,0,0.1,0c0.1,0,0.1,0,0.2,0c1.5,0,2.8-1.3,2.8-2.8c0-0.1,0-0.1,0-0.2
			c0,0,0-0.1,0-0.1c-0.1-0.4,0.1-0.8,0.3-1.1c0.3-0.3,0.6-0.5,1.1-0.5h25.3c0.4,0,0.8,0.2,1.1,0.5c0.3,0.3,0.4,0.7,0.3,1.1
			c0,0,0,0.1,0,0.1c0,0.1,0,0.1,0,0.2c0,1.5,1.3,2.8,2.8,2.8c0.1,0,0.1,0,0.2,0c0,0,0.1,0,0.1,0c0.4,0,0.8,0.1,1.1,0.3
			c0.3,0.3,0.5,0.6,0.5,1.1v25.3c0,0.4-0.2,0.8-0.5,1.1c-0.3,0.3-0.7,0.4-1.1,0.3c0,0-0.1,0-0.1,0c-0.1,0-0.1,0-0.2,0
			c-1.5,0-2.8,1.3-2.8,2.8c0,0.1,0,0.1,0,0.2c0,0,0,0.1,0,0.1c0.1,0.4-0.1,0.8-0.3,1.1C37.2,49.1,36.9,49.2,36.5,49.2z M12.5,46.4
			h22.5c0.4-2.4,2.3-4.3,4.7-4.7V19.2c-2.4-0.4-4.3-2.3-4.7-4.7H12.5c-0.4,2.4-2.3,4.3-4.7,4.7v22.5C10.3,42.2,12.2,44.1,12.5,46.4z
			"/>
	</g>
</g>
</svg>
