<?xml version="1.0" encoding="UTF-8" standalone="no"?>
<!DOCTYPE svg PUBLIC "-//W3C//DTD SVG 1.1//EN" "http://www.w3.org/Graphics/SVG/1.1/DTD/svg11.dtd">
<svg version="1.1" xmlns="http://www.w3.org/2000/svg" xmlns:xlink="http://www.w3.org/1999/xlink" preserveAspectRatio="xMidYMid meet" viewBox="0 0 640 640" width="640" height="640"><defs><path d="M278.19 274.65C300.1 307.66 327.76 325.85 356.1 325.85C384.43 325.85 412.1 307.66 434 274.65C453.33 245.51 464.87 209.48 464.87 178.28C464.87 114.84 416.07 63.22 356.1 63.22C296.12 63.22 247.32 114.83 247.32 178.28C247.32 209.48 258.86 245.51 278.19 274.65ZM447.13 178.28C447.13 205.36 436.54 238.16 419.48 263.87C401.26 291.33 378.16 307.09 356.09 307.09C334.03 307.09 310.93 291.33 292.71 263.87C275.65 238.16 265.06 205.36 265.06 178.28C265.06 125.18 305.9 81.98 356.1 81.98C406.29 81.98 447.13 125.18 447.13 178.28Z" id="c8xxLZXxD"></path><path d="M385.38 556.83C385.36 564.41 393.81 568.84 399.54 564.35C402.77 561.82 403.96 557.16 402.43 553.24C402 552.11 401.34 551.05 400.51 550.2C395.09 544.28 385.4 548.75 385.38 556.83Z" id="a2hxjCQW1z"></path><path d="M402.43 553.24C402.43 553.24 402.43 553.24 402.43 553.24C402.29 552.86 402.29 552.86 402.43 553.24Z" id="bwMsU5J6X"></path><path d="M73.13 401.19C73.82 372.59 81.86 344.92 96.47 320.93C110.28 298.26 129.31 279.83 151.74 267.31C172.33 287.09 195.95 297.51 220.41 297.51C234.87 297.51 249.09 293.87 262.67 286.68C267.05 284.36 268.82 278.72 266.63 274.09C264.44 269.46 259.11 267.58 254.73 269.9C243.64 275.77 232.09 278.75 220.41 278.75C198.88 278.75 177.85 268.58 159.6 249.33C156.95 246.53 152.91 245.8 149.53 247.5C121.76 261.48 98.25 283.36 81.56 310.77C64.41 338.92 55.35 371.58 55.35 405.21C55.35 405.23 55.35 405.34 55.35 405.35C55.35 408 56.41 410.53 58.26 412.3C84.35 437.33 115.84 456.32 149.33 467.21C150.2 467.49 151.07 467.63 151.94 467.63C155.73 467.63 159.24 465.04 160.41 461C161.85 456.05 159.22 450.8 154.54 449.28C124.78 439.59 96.71 423.01 73.13 401.19Z" id="emdQsYalC"></path><path d="M249.52 257.33C253.91 255.03 255.7 249.4 253.52 244.76C251.34 240.12 246.02 238.23 241.63 240.53C234.47 244.3 227.2 246.2 220.02 246.2C201.39 246.2 181.83 232.82 166.35 209.48C151.77 187.51 142.72 159.5 142.72 136.39C142.72 91.3 177.4 54.62 220.02 54.62C240.14 54.62 259.19 62.76 273.66 77.53C277.19 81.13 282.8 81.02 286.2 77.29C289.6 73.57 289.5 67.63 285.98 64.03C268.18 45.87 244.75 35.86 220.02 35.86C167.62 35.86 124.98 80.96 124.98 136.39C124.98 163.56 135.02 194.91 151.83 220.25C170.95 249.08 195.17 264.96 220.02 264.96C229.96 264.96 239.89 262.4 249.52 257.33Z" id="a1UZqho4ZX"></path><path d="M437.46 304.67C434.08 302.97 430.04 303.7 427.39 306.5C406.03 329.04 381.38 340.96 356.1 340.96C330.83 340.96 306.17 329.05 284.81 306.5C282.15 303.7 278.12 302.97 274.73 304.67C242.85 320.73 215.87 345.85 196.7 377.31C177.02 409.63 166.61 447.12 166.61 485.74C166.61 485.75 166.61 485.88 166.61 485.9C166.61 488.55 167.67 491.07 169.52 492.85C220.69 541.93 286.95 568.96 356.1 568.96C360.42 568.96 364.78 568.86 369.06 568.65C373.96 568.41 377.74 564.02 377.51 558.85C377.29 553.67 373.17 549.68 368.24 549.91C364.23 550.1 360.15 550.2 356.1 550.2C292.69 550.2 231.87 525.92 184.39 481.74C185.08 448.15 194.45 415.64 211.61 387.47C227.89 360.75 250.38 339.08 276.91 324.48C300.63 347.56 327.88 359.72 356.1 359.72C384.32 359.72 411.58 347.56 435.28 324.48C454.08 334.83 470.94 348.85 484.96 365.66C429.75 369.07 385.81 417.65 385.81 476.89C385.81 538.34 433.07 588.32 491.16 588.32C549.25 588.32 596.51 538.33 596.51 476.89C596.51 421.79 558.5 375.91 508.76 367.02C490.21 340.38 465.65 318.87 437.46 304.67ZM403.55 476.89C403.55 425.79 442.85 384.22 491.16 384.22C539.47 384.22 578.78 425.79 578.78 476.89C578.77 527.99 539.47 569.56 491.16 569.56C442.85 569.56 403.55 527.99 403.55 476.89Z" id="aeO0GfY0L"></path><path d="M500.03 467.51C500.03 430.81 500.03 410.41 500.03 406.33C500.03 401.15 496.06 396.95 491.16 396.95C486.26 396.95 482.29 401.15 482.29 406.33C482.29 410.41 482.29 430.81 482.29 467.51C447.59 467.51 428.31 467.51 424.46 467.51C419.56 467.51 415.59 471.71 415.59 476.89C415.59 482.07 419.56 486.27 424.46 486.27C428.31 486.27 447.59 486.27 482.29 486.27C482.29 522.98 482.29 543.37 482.29 547.45C482.29 552.63 486.26 556.83 491.16 556.83C496.06 556.83 500.03 552.63 500.03 547.45C500.03 543.37 500.03 522.98 500.03 486.27C534.73 486.27 554.01 486.27 557.87 486.27C562.77 486.27 566.74 482.07 566.74 476.89C566.74 471.71 562.77 467.51 557.87 467.51C550.16 467.51 530.88 467.51 500.03 467.51Z" id="a5orR8OAzJ"></path></defs><g><g><g><use xlink:href="#c8xxLZXxD" opacity="1" fill="#858585" fill-opacity="1"></use><g><use xlink:href="#c8xxLZXxD" opacity="1" fill-opacity="0" stroke="#000000" stroke-width="1" stroke-opacity="0"></use></g></g><g><use xlink:href="#a2hxjCQW1z" opacity="1" fill="#858585" fill-opacity="1"></use><g><use xlink:href="#a2hxjCQW1z" opacity="1" fill-opacity="0" stroke="#000000" stroke-width="1" stroke-opacity="0"></use></g></g><g><use xlink:href="#bwMsU5J6X" opacity="1" fill="#858585" fill-opacity="1"></use><g><use xlink:href="#bwMsU5J6X" opacity="1" fill-opacity="0" stroke="#000000" stroke-width="1" stroke-opacity="0"></use></g></g><g><use xlink:href="#emdQsYalC" opacity="1" fill="#858585" fill-opacity="1"></use><g><use xlink:href="#emdQsYalC" opacity="1" fill-opacity="0" stroke="#000000" stroke-width="1" stroke-opacity="0"></use></g></g><g><use xlink:href="#a1UZqho4ZX" opacity="1" fill="#858585" fill-opacity="1"></use><g><use xlink:href="#a1UZqho4ZX" opacity="1" fill-opacity="0" stroke="#000000" stroke-width="1" stroke-opacity="0"></use></g></g><g><use xlink:href="#aeO0GfY0L" opacity="1" fill="#858585" fill-opacity="1"></use><g><use xlink:href="#aeO0GfY0L" opacity="1" fill-opacity="0" stroke="#000000" stroke-width="1" stroke-opacity="0"></use></g></g><g><use xlink:href="#a5orR8OAzJ" opacity="1" fill="#858585" fill-opacity="1"></use><g><use xlink:href="#a5orR8OAzJ" opacity="1" fill-opacity="0" stroke="#000000" stroke-width="1" stroke-opacity="0"></use></g></g></g></g></svg>