<?xml version="1.0" encoding="utf-8"?>
<!-- Generator: Adobe Illustrator 22.1.0, SVG Export Plug-In . SVG Version: 6.00 Build 0)  -->
<svg version="1.1" id="Livello_1" xmlns="http://www.w3.org/2000/svg" xmlns:xlink="http://www.w3.org/1999/xlink" x="0px" y="0px"
	 viewBox="0 0 640 640" style="enable-background:new 0 0 640 640;" xml:space="preserve">
<style type="text/css">
	.st0{fill:#858585;}
	.st1{fill-opacity:0;stroke:#000000;stroke-opacity:0;}
</style>
<g>
	<g>
		<g>
			<g>
				<path id="c8xxLZXxD" class="st0" d="M278.2,286.6c21.9,33,49.6,51.2,77.9,51.2c28.3,0,56-18.2,77.9-51.2
					c19.3-29.1,30.9-65.2,30.9-96.4c0-63.4-48.8-115.1-108.8-115.1c-60,0-108.8,51.6-108.8,115.1
					C247.3,221.5,258.9,257.5,278.2,286.6z M447.1,190.3c0,27.1-10.6,59.9-27.6,85.6c-18.2,27.5-41.3,43.2-63.4,43.2
					c-22.1,0-45.2-15.8-63.4-43.2c-17.1-25.7-27.6-58.5-27.6-85.6c0-53.1,40.8-96.3,91-96.3C406.3,94,447.1,137.2,447.1,190.3z"/>
			</g>
			<g>
				<g>
					<path id="c8xxLZXxD_1_" class="st1" d="M278.2,286.6c21.9,33,49.6,51.2,77.9,51.2c28.3,0,56-18.2,77.9-51.2
						c19.3-29.1,30.9-65.2,30.9-96.4c0-63.4-48.8-115.1-108.8-115.1c-60,0-108.8,51.6-108.8,115.1
						C247.3,221.5,258.9,257.5,278.2,286.6z M447.1,190.3c0,27.1-10.6,59.9-27.6,85.6c-18.2,27.5-41.3,43.2-63.4,43.2
						c-22.1,0-45.2-15.8-63.4-43.2c-17.1-25.7-27.6-58.5-27.6-85.6c0-53.1,40.8-96.3,91-96.3C406.3,94,447.1,137.2,447.1,190.3z"/>
				</g>
			</g>
		</g>
		<g>
			<g>
				<path id="a2hxjCQW1z" class="st0" d="M385.4,568.8c0,7.6,8.4,12,14.2,7.5c3.2-2.5,4.4-7.2,2.9-11.1c-0.4-1.1-1.1-2.2-1.9-3
					C395.1,556.3,385.4,560.8,385.4,568.8z"/>
			</g>
			<g>
				<g>
					<path id="a2hxjCQW1z_1_" class="st1" d="M385.4,568.8c0,7.6,8.4,12,14.2,7.5c3.2-2.5,4.4-7.2,2.9-11.1c-0.4-1.1-1.1-2.2-1.9-3
						C395.1,556.3,385.4,560.8,385.4,568.8z"/>
				</g>
			</g>
		</g>
		<g>
			<g>
				<path id="bwMsU5J6X" class="st0" d="M402.4,565.2L402.4,565.2C402.3,564.9,402.3,564.9,402.4,565.2z"/>
			</g>
			<g>
				<g>
					<path id="bwMsU5J6X_1_" class="st1" d="M402.4,565.2L402.4,565.2C402.3,564.9,402.3,564.9,402.4,565.2z"/>
				</g>
			</g>
		</g>
		<g>
			<g>
				<path id="emdQsYalC" class="st0" d="M73.1,413.2c0.7-28.6,8.7-56.3,23.3-80.3c13.8-22.7,32.8-41.1,55.3-53.6
					c20.6,19.8,44.2,30.2,68.7,30.2c14.5,0,28.7-3.6,42.3-10.8c4.4-2.3,6.1-8,4-12.6s-7.5-6.5-11.9-4.2c-11.1,5.9-22.6,8.9-34.3,8.9
					c-21.5,0-42.6-10.2-60.8-29.4c-2.7-2.8-6.7-3.5-10.1-1.8c-27.8,14-51.3,35.9-68,63.3c-17.1,28.2-26.2,60.8-26.2,94.4
					c0,0,0,0.1,0,0.1c0,2.6,1.1,5.2,2.9,6.9c26.1,25,57.6,44,91.1,54.9c0.9,0.3,1.7,0.4,2.6,0.4c3.8,0,7.3-2.6,8.5-6.6
					c1.4-5-1.2-10.2-5.9-11.7C124.8,451.6,96.7,435,73.1,413.2z"/>
			</g>
			<g>
				<g>
					<path id="emdQsYalC_1_" class="st1" d="M73.1,413.2c0.7-28.6,8.7-56.3,23.3-80.3c13.8-22.7,32.8-41.1,55.3-53.6
						c20.6,19.8,44.2,30.2,68.7,30.2c14.5,0,28.7-3.6,42.3-10.8c4.4-2.3,6.1-8,4-12.6s-7.5-6.5-11.9-4.2
						c-11.1,5.9-22.6,8.9-34.3,8.9c-21.5,0-42.6-10.2-60.8-29.4c-2.7-2.8-6.7-3.5-10.1-1.8c-27.8,14-51.3,35.9-68,63.3
						c-17.1,28.2-26.2,60.8-26.2,94.4c0,0,0,0.1,0,0.1c0,2.6,1.1,5.2,2.9,6.9c26.1,25,57.6,44,91.1,54.9c0.9,0.3,1.7,0.4,2.6,0.4
						c3.8,0,7.3-2.6,8.5-6.6c1.4-5-1.2-10.2-5.9-11.7C124.8,451.6,96.7,435,73.1,413.2z"/>
				</g>
			</g>
		</g>
		<g>
			<g>
				<path id="a1UZqho4ZX" class="st0" d="M249.5,269.3c4.4-2.3,6.2-7.9,4-12.6c-2.2-4.6-7.5-6.5-11.9-4.2
					c-7.2,3.8-14.4,5.7-21.6,5.7c-18.6,0-38.2-13.4-53.7-36.7c-14.6-22-23.6-50-23.6-73.1c0-45.1,34.7-81.8,77.3-81.8
					c20.1,0,39.2,8.1,53.6,22.9c3.5,3.6,9.1,3.5,12.5-0.2c3.4-3.7,3.3-9.7-0.2-13.3c-17.8-18.2-41.2-28.2-66-28.2
					c-52.4,0-95,45.1-95,100.5c0,27.2,10,58.5,26.8,83.9c19.1,28.8,43.3,44.7,68.2,44.7C230,277,239.9,274.4,249.5,269.3z"/>
			</g>
			<g>
				<g>
					<path id="a1UZqho4ZX_1_" class="st1" d="M249.5,269.3c4.4-2.3,6.2-7.9,4-12.6c-2.2-4.6-7.5-6.5-11.9-4.2
						c-7.2,3.8-14.4,5.7-21.6,5.7c-18.6,0-38.2-13.4-53.7-36.7c-14.6-22-23.6-50-23.6-73.1c0-45.1,34.7-81.8,77.3-81.8
						c20.1,0,39.2,8.1,53.6,22.9c3.5,3.6,9.1,3.5,12.5-0.2c3.4-3.7,3.3-9.7-0.2-13.3c-17.8-18.2-41.2-28.2-66-28.2
						c-52.4,0-95,45.1-95,100.5c0,27.2,10,58.5,26.8,83.9c19.1,28.8,43.3,44.7,68.2,44.7C230,277,239.9,274.4,249.5,269.3z"/>
				</g>
			</g>
		</g>
		<g>
			<g>
				<path id="aeO0GfY0L" class="st0" d="M437.5,316.7c-3.4-1.7-7.4-1-10.1,1.8C406,341,381.4,353,356.1,353
					c-25.3,0-49.9-11.9-71.3-34.5c-2.7-2.8-6.7-3.5-10.1-1.8c-31.9,16.1-58.9,41.2-78,72.6c-19.7,32.3-30.1,69.8-30.1,108.4
					c0,0,0,0.1,0,0.2c0,2.6,1.1,5.2,2.9,7C220.7,553.9,287,581,356.1,581c4.3,0,8.7-0.1,13-0.3c4.9-0.2,8.7-4.6,8.5-9.8
					c-0.2-5.2-4.3-9.2-9.3-8.9c-4,0.2-8.1,0.3-12.1,0.3c-63.4,0-124.2-24.3-171.7-68.5c0.7-33.6,10.1-66.1,27.2-94.3
					c16.3-26.7,38.8-48.4,65.3-63c23.7,23.1,51,35.2,79.2,35.2s55.5-12.2,79.2-35.2c18.8,10.3,35.7,24.4,49.7,41.2
					c-55.2,3.4-99.1,52-99.1,111.2c0,61.5,47.3,111.4,105.4,111.4s105.4-50,105.4-111.4c0-55.1-38-101-87.8-109.9
					C490.2,352.4,465.6,330.9,437.5,316.7z M403.5,488.9c0-51.1,39.3-92.7,87.6-92.7s87.6,41.6,87.6,92.7
					c0,51.1-39.3,92.7-87.6,92.7S403.5,540,403.5,488.9z"/>
			</g>
			<g>
				<g>
					<path id="aeO0GfY0L_1_" class="st1" d="M437.5,316.7c-3.4-1.7-7.4-1-10.1,1.8C406,341,381.4,353,356.1,353
						c-25.3,0-49.9-11.9-71.3-34.5c-2.7-2.8-6.7-3.5-10.1-1.8c-31.9,16.1-58.9,41.2-78,72.6c-19.7,32.3-30.1,69.8-30.1,108.4
						c0,0,0,0.1,0,0.2c0,2.6,1.1,5.2,2.9,7C220.7,553.9,287,581,356.1,581c4.3,0,8.7-0.1,13-0.3c4.9-0.2,8.7-4.6,8.5-9.8
						c-0.2-5.2-4.3-9.2-9.3-8.9c-4,0.2-8.1,0.3-12.1,0.3c-63.4,0-124.2-24.3-171.7-68.5c0.7-33.6,10.1-66.1,27.2-94.3
						c16.3-26.7,38.8-48.4,65.3-63c23.7,23.1,51,35.2,79.2,35.2s55.5-12.2,79.2-35.2c18.8,10.3,35.7,24.4,49.7,41.2
						c-55.2,3.4-99.1,52-99.1,111.2c0,61.5,47.3,111.4,105.4,111.4s105.4-50,105.4-111.4c0-55.1-38-101-87.8-109.9
						C490.2,352.4,465.6,330.9,437.5,316.7z M403.5,488.9c0-51.1,39.3-92.7,87.6-92.7s87.6,41.6,87.6,92.7
						c0,51.1-39.3,92.7-87.6,92.7S403.5,540,403.5,488.9z"/>
				</g>
			</g>
		</g>
		<g>
			<g>
				<path id="a5orR8OAzJ" class="st0" d="M500,479.5c0-36.7,0-57.1,0-61.2c0-5.2-4-9.4-8.9-9.4s-8.9,4.2-8.9,9.4
					c0,4.1,0,24.5,0,61.2c-34.7,0-54,0-57.8,0c-4.9,0-8.9,4.2-8.9,9.4c0,5.2,4,9.4,8.9,9.4c3.9,0,23.1,0,57.8,0
					c0,36.7,0,57.1,0,61.2c0,5.2,4,9.4,8.9,9.4s8.9-4.2,8.9-9.4c0-4.1,0-24.5,0-61.2c34.7,0,54,0,57.8,0c4.9,0,8.9-4.2,8.9-9.4
					c0-5.2-4-9.4-8.9-9.4C550.2,479.5,530.9,479.5,500,479.5z"/>
			</g>
			<g>
				<g>
					<path id="a5orR8OAzJ_1_" class="st1" d="M500,479.5c0-36.7,0-57.1,0-61.2c0-5.2-4-9.4-8.9-9.4s-8.9,4.2-8.9,9.4
						c0,4.1,0,24.5,0,61.2c-34.7,0-54,0-57.8,0c-4.9,0-8.9,4.2-8.9,9.4c0,5.2,4,9.4,8.9,9.4c3.9,0,23.1,0,57.8,0
						c0,36.7,0,57.1,0,61.2c0,5.2,4,9.4,8.9,9.4s8.9-4.2,8.9-9.4c0-4.1,0-24.5,0-61.2c34.7,0,54,0,57.8,0c4.9,0,8.9-4.2,8.9-9.4
						c0-5.2-4-9.4-8.9-9.4C550.2,479.5,530.9,479.5,500,479.5z"/>
				</g>
			</g>
		</g>
	</g>
</g>
</svg>
