<?xml version="1.0" encoding="utf-8"?>
<!-- Generator: Adobe Illustrator 22.1.0, SVG Export Plug-In . SVG Version: 6.00 Build 0)  -->
<svg version="1.1"
	 id="Livello_1" xmlns:cc="http://creativecommons.org/ns#" xmlns:dc="http://purl.org/dc/elements/1.1/" xmlns:inkscape="http://www.inkscape.org/namespaces/inkscape" xmlns:rdf="http://www.w3.org/1999/02/22-rdf-syntax-ns#" xmlns:sodipodi="http://sodipodi.sourceforge.net/DTD/sodipodi-0.dtd" xmlns:svg="http://www.w3.org/2000/svg"
	 xmlns="http://www.w3.org/2000/svg" xmlns:xlink="http://www.w3.org/1999/xlink" x="0px" y="0px" viewBox="0 0 100 125"
	 style="enable-background:new 0 0 100 125;" xml:space="preserve">
<style type="text/css">
	.st0{fill:#FFFFFF;}
</style>
<g transform="translate(0,-952.36218)">
	<path class="st0" d="M56,979.4c0-1.6,1.5-3,3-3h22c1.6,0,3,1.4,3,3v68c0,1.6-1.4,3-3,3H59c-1.6,0-3-1.4-3-3s1.5-3,3-3h19v-62H59
		C57.4,982.4,56,981,56,979.4L56,979.4z"/>
	<path class="st0" d="M16,1013.4c0-0.7,0.3-1.5,0.8-2.1l16-17c1.1-1,3.2-1.4,4.4-0.2c1.2,1.1,1.2,3.3,0,4.4L26,1010.4h41
		c1.7,0,3,1.3,3,3s-1.3,3-3,3H25.9l11.2,11.9c1,1,1.2,3.3,0,4.4s-3.3,0.8-4.4-0.3l-16-17C16.3,1014.8,16,1014.2,16,1013.4z"/>
</g>
</svg>
