<?xml version="1.0" encoding="utf-8"?>
<!-- Generator: Adobe Illustrator 22.1.0, SVG Export Plug-In . SVG Version: 6.00 Build 0)  -->
<svg version="1.1" id="Livello_1" xmlns="http://www.w3.org/2000/svg" xmlns:xlink="http://www.w3.org/1999/xlink" x="0px" y="0px"
	 viewBox="0 0 22.1 22.1" style="enable-background:new 0 0 22.1 22.1;" xml:space="preserve">
<style type="text/css">
	.st0{fill:#858585;}
</style>
<g id="Livello_2_1_">
</g>
<g id="Livello_1_1_">
	<g>
		<path class="st0" d="M17,10.1H7.2c-0.3,0-0.6,0.3-0.6,0.6L7.7,20c0.1,0.7,0.7,1.2,1.4,1.2h5.9c0.7,0,1.3-0.5,1.4-1.2l1.2-9.3
			C17.6,10.4,17.4,10.1,17,10.1z M9.9,19.2C9.9,19.2,9.9,19.2,9.9,19.2c-0.3,0-0.4-0.2-0.5-0.4l-0.5-6.2c0-0.2,0.1-0.4,0.4-0.5
			s0.4,0.1,0.5,0.4l0.5,6.2C10.3,19,10.1,19.2,9.9,19.2z M12.5,18.8c0,0.2-0.2,0.4-0.4,0.4s-0.4-0.2-0.4-0.4v-6.2
			c0-0.2,0.2-0.4,0.4-0.4s0.4,0.2,0.4,0.4V18.8z M14.7,18.8c0,0.2-0.2,0.4-0.4,0.4c0,0,0,0,0,0c-0.2,0-0.4-0.2-0.4-0.5l0.5-6.2
			c0-0.2,0.2-0.4,0.5-0.4c0.2,0,0.4,0.2,0.4,0.5L14.7,18.8z"/>
		<path class="st0" d="M15.8,0.8c-0.2-0.3-0.7-0.3-1-0.1L12,3l-1.1-0.5c-0.5-0.2-1-0.1-1.4,0.2L8.3,3.6C7.9,4,7.7,4.5,7.7,5l0.2,1.2
			L5,8.4c-0.3,0.2-0.3,0.7-0.1,1C5,9.5,5.2,9.6,5.4,9.6c0.1,0,0.3,0,0.4-0.1l9.8-7.7C16,1.6,16.1,1.1,15.8,0.8z M8.6,4.8
			c0-0.2,0-0.4,0.2-0.5L10,3.4c0.1-0.1,0.3-0.1,0.5-0.1l0.6,0.3L8.7,5.5L8.6,4.8z"/>
		<path class="st0" d="M14.6,9.2L15.8,9C15.9,9,16,8.9,16,8.8l-0.2-1.2c0-0.1-0.1-0.2-0.3-0.2l-1.2,0.2c-0.1,0-0.2,0.1-0.2,0.3
			L14.3,9C14.4,9.1,14.5,9.2,14.6,9.2z"/>
		<path class="st0" d="M12.7,7.5c-0.1-0.1-0.2-0.1-0.3,0l-0.7,0.7c-0.1,0.1-0.1,0.2,0,0.3l0.7,0.7c0.1,0.1,0.2,0.1,0.3,0l0.7-0.7
			c0.1-0.1,0.1-0.2,0-0.3L12.7,7.5z"/>
		<path class="st0" d="M13.7,7.1l0.7-1c0.1-0.1,0-0.2-0.1-0.3l-1-0.7c-0.1-0.1-0.2,0-0.3,0.1l-0.6,1c-0.1,0.1,0,0.2,0.1,0.3l1,0.7
			C13.5,7.2,13.6,7.2,13.7,7.1z"/>
	</g>
</g>
</svg>
