<?xml version="1.0" encoding="utf-8"?>
<!-- Generator: Adobe Illustrator 22.1.0, SVG Export Plug-In . SVG Version: 6.00 Build 0)  -->
<svg version="1.1" id="Livello_1" xmlns="http://www.w3.org/2000/svg" xmlns:xlink="http://www.w3.org/1999/xlink" x="0px" y="0px"
	 viewBox="0 0 100 125" style="enable-background:new 0 0 100 125;" xml:space="preserve">
<style type="text/css">
	.st0{fill:#FFFFFF;}
</style>
<g>
	<path class="st0" d="M27.1,96h37.8c2.8,0,5.1-2.3,5.1-5.1V43.1c0-2.8-2.3-5.1-5.1-5.1H27.1c-2.8,0-5.1,2.3-5.1,5.1v47.8
		C22,93.7,24.3,96,27.1,96z M26,43.1c0-0.6,0.5-1.1,1.1-1.1h37.8c0.6,0,1.1,0.5,1.1,1.1v47.8c0,0.6-0.5,1.1-1.1,1.1H27.1
		c-0.6,0-1.1-0.5-1.1-1.1V43.1z"/>
	<path class="st0" d="M74.9,28H37.1c-2.8,0-5.1,2.3-5.1,5.1c0,1.1,0.9,2,2,2s2-0.9,2-2c0-0.6,0.5-1.1,1.1-1.1h37.8
		c0.6,0,1.1,0.5,1.1,1.1v47.8c0,0.6-0.5,1.1-1.1,1.1c-1.1,0-2,0.9-2,2s0.9,2,2,2c2.8,0,5.1-2.3,5.1-5.1V33.1
		C80,30.3,77.7,28,74.9,28z"/>
</g>
</svg>
