<?xml version="1.0" encoding="utf-8"?>
<!-- Generator: Adobe Illustrator 22.1.0, SVG Export Plug-In . SVG Version: 6.00 Build 0)  -->
<svg version="1.1" id="Livello_1" xmlns="http://www.w3.org/2000/svg" xmlns:xlink="http://www.w3.org/1999/xlink" x="0px" y="0px"
	 viewBox="0 0 60 75" style="enable-background:new 0 0 60 75;" xml:space="preserve">
<style type="text/css">
	.st0{fill:#FFFFFF;}
</style>
<g>
	<g>
		<path class="st0" d="M35.3,41.3c1.3-1.3,2.4-2.9,3-4.7c0.4-0.9-0.2-1.9-1.1-2.3c-0.9-0.4-1.9,0.2-2.3,1.1
			c-0.4,1.2-1.1,2.4-2.1,3.3c-3.5,3.5-9.2,3.5-12.8,0l-7.7-7.6c-1.7-1.7-2.6-4-2.6-6.4s1-4.7,2.6-6.4s4-2.6,6.4-2.6s4.7,1,6.4,2.6
			l7.1,7.1c0.7,0.7,1.8,0.7,2.5,0s0.7-1.8,0-2.5l-7.1-7.1c-2.4-2.3-5.5-3.6-8.9-3.6S12.3,13.6,10,16s-3.7,5.5-3.7,8.9
			s1.3,6.5,3.7,8.9l7.7,7.7c2.5,2.5,5.6,3.7,8.9,3.7S32.9,43.8,35.3,41.3z"/>
		<path class="st0" d="M42.5,30.8c-4.9-4.9-12.9-4.9-17.8,0c-1.3,1.3-2.4,2.9-3,4.7c-0.4,0.9,0.2,1.9,1.1,2.3
			c0.9,0.4,1.9-0.2,2.3-1.1c0.4-1.2,1.1-2.4,2.1-3.3c3.5-3.5,9.2-3.5,12.8,0l7.7,7.7c3.5,3.5,3.5,9.2,0,12.8
			c-3.5,3.5-9.2,3.5-12.8,0l-7.1-7.1c-0.7-0.7-1.8-0.7-2.5,0s-0.7,1.8,0,2.5l7.1,7.1c2.5,2.5,5.6,3.7,8.9,3.7c3.3,0,6.4-1.2,8.9-3.7
			c4.9-4.9,4.9-12.9,0-17.8L42.5,30.8z"/>
	</g>
</g>
</svg>
