<?xml version="1.0" encoding="utf-8"?>
<!-- Generator: Adobe Illustrator 22.1.0, SVG Export Plug-In . SVG Version: 6.00 Build 0)  -->
<svg version="1.1" id="Livello_1" xmlns="http://www.w3.org/2000/svg" xmlns:xlink="http://www.w3.org/1999/xlink" x="0px" y="0px"
	 viewBox="0 0 100 125" style="enable-background:new 0 0 100 125;" xml:space="preserve">
<style type="text/css">
	.st0{fill:#606060;}
</style>
<g id="Livello_2_1_">
</g>
<g id="Livello_1_1_">
	<path class="st0" d="M22.6,86.7c6.7,6.5,15.8,10.5,25.8,10.5c4.2,0,8.3-0.7,12.2-2c1-0.4,1.6-1.5,1.2-2.5c-0.4-1-1.5-1.6-2.5-1.2
		c-3.5,1.2-7.1,1.8-10.9,1.8c-8.5,0-16.2-3.2-22.1-8.4c2.2-3.7,5.5-6.9,9.3-9.4c2.3,1.2,7.8,3.7,12.1,3.7c5.4,0,12.9-4.1,13.2-4.3
		c1-0.5,1.3-1.8,0.8-2.7c-0.5-1-1.8-1.3-2.7-0.8c-1.9,1-7.6,3.8-11.2,3.8c-3.6,0-9.3-2.7-11.2-3.8c-0.6-0.3-1.4-0.3-2,0
		c-4.5,2.7-8.3,6.3-11,10.5c-5.1-5.8-8.2-13.4-8.2-21.8C15.4,41.8,30.3,27,48.5,27s33,14.7,33,33c0,1.1,0.9,2,2,2s2-0.9,2-2
		c0-20.5-16.7-37.1-37.1-37.1S11.3,39.5,11.3,60c0,10.3,4.2,19.6,11,26.3C22.3,86.4,22.5,86.6,22.6,86.7z"/>
	<path class="st0" d="M33.8,54c0,9.5,7.2,18.8,14.6,18.8C56,72.8,63,63.8,63,54c0-10.2-5.3-16-14.6-16S33.8,43.8,33.8,54z M58.9,54
		c0,7.5-5.2,14.8-10.6,14.8c-5.6,0-10.6-8.3-10.6-14.8c0-5.5,1.8-12,10.6-12S58.9,48.5,58.9,54z"/>
	<path class="st0" d="M76.5,63c-5.6,0-10.2,4.6-10.2,10.2V75h-0.1c-1.1,0-2,0.9-2,2v17.2c0,1.1,0.9,2,2,2h20.5c1.1,0,2-0.9,2-2V76.9
		c0-1.1-0.9-2-2-2h-0.1v-1.8C86.6,67.6,82.1,63,76.5,63z M70.3,73.2c0-3.4,2.8-6.2,6.2-6.2c3.4,0,6.2,2.8,6.2,6.2V75H70.3V73.2z
		 M84.7,92.2H68.2V78.9h16.5V92.2z"/>
	<path class="st0" d="M75.2,86.8v2.7c0,0.6,0.5,1.1,1.1,1.1h0.3c0.6,0,1.1-0.5,1.1-1.1v-2.7c0.8-0.4,1.4-1.3,1.4-2.3
		c0-1.4-1.2-2.6-2.6-2.6s-2.6,1.2-2.6,2.6C73.8,85.5,74.4,86.4,75.2,86.8z"/>
</g>
</svg>
