<?xml version="1.0" encoding="utf-8"?>
<!-- Generator: Adobe Illustrator 22.1.0, SVG Export Plug-In . SVG Version: 6.00 Build 0)  -->
<svg version="1.1"
	 id="Livello_1" xmlns:cc="http://creativecommons.org/ns#" xmlns:dc="http://purl.org/dc/elements/1.1/" xmlns:inkscape="http://www.inkscape.org/namespaces/inkscape" xmlns:rdf="http://www.w3.org/1999/02/22-rdf-syntax-ns#" xmlns:sodipodi="http://sodipodi.sourceforge.net/DTD/sodipodi-0.dtd" xmlns:svg="http://www.w3.org/2000/svg"
	 xmlns="http://www.w3.org/2000/svg" xmlns:xlink="http://www.w3.org/1999/xlink" x="0px" y="0px" viewBox="0 0 61.5 59.9"
	 style="enable-background:new 0 0 61.5 59.9;" xml:space="preserve">
<style type="text/css">
	.st0{fill:#858585;}
</style>
<g transform="translate(0,-952.36218)">
	<path class="st0" d="M42.1,960c-0.5-0.3-1.2-0.1-1.5,0.4l-2.1,3.7c-0.3,0.5-0.1,1.2,0.4,1.5c0.5,0.3,1.2,0.1,1.5-0.4l2.1-3.7
		C42.8,961,42.6,960.3,42.1,960z M25.8,957.9c-0.2-0.1-0.5-0.2-0.8-0.1c-0.6,0.2-0.9,0.7-0.8,1.3l1.1,4.1c0.2,0.6,0.7,0.9,1.3,0.8
		c0.6-0.2,0.9-0.7,0.8-1.3l-1.1-4.1C26.2,958.3,26.1,958,25.8,957.9z M52.1,973.1c-0.2-0.1-0.5-0.2-0.8-0.1l-4.1,1.1
		c-0.6,0.2-0.9,0.7-0.8,1.3c0.2,0.6,0.7,0.9,1.3,0.8l4.1-1.1c0.6-0.2,0.9-0.7,0.8-1.3C52.5,973.4,52.3,973.2,52.1,973.1L52.1,973.1z
		 M37.3,968.4c-5.7-3.3-13.7-2-17.3,4.2c-4.4,7.6-0.1,12.6-2.4,17.9l10.3,6c3.5-4.6,9.9-3.4,14.3-11
		C45.9,979.2,42.9,971.7,37.3,968.4z M32.8,969.6C32.8,969.6,32.8,969.6,32.8,969.6C32.8,969.6,32.9,969.6,32.8,969.6
		c0.6,0.3,0.8,1,0.5,1.5c-0.2,0.4-0.7,0.6-1.1,0.5c-2.8-0.5-5.6,0.6-7.5,2.8c-0.4,0.5-1.1,0.5-1.5,0.1c-0.4-0.4-0.5-1.1-0.1-1.5
		c2.3-2.8,5.9-4.1,9.4-3.5C32.6,969.5,32.7,969.5,32.8,969.6L32.8,969.6z M12.8,967.9c-0.5-0.3-1.2-0.1-1.5,0.4
		c-0.3,0.5-0.1,1.2,0.4,1.5l3.7,2.1c0.5,0.3,1.2,0.1,1.5-0.4c0.3-0.5,0.1-1.2-0.4-1.5L12.8,967.9z M46.2,987.2
		c-0.5-0.3-1.2-0.1-1.5,0.4c-0.3,0.5-0.1,1.2,0.4,1.5l3.7,2.1c0.5,0.3,1.2,0.1,1.5-0.4c0.3-0.5,0.1-1.2-0.4-1.5L46.2,987.2z
		 M16.6,992.4l-1.1,1.9l10.2,5.9l1.1-1.9L16.6,992.4L16.6,992.4z M14.5,996.1l-0.5,0.9c-0.6,1.1-0.2,2.4,0.8,2.9l6.5,3.8
		c1,0.6,2.3,0.3,2.9-0.8l0.5-0.9C24.7,1002,14.5,996.1,14.5,996.1z M15.6,1001.7c-0.6,1-0.2,2.3,0.8,2.9c1,0.6,2.3,0.2,2.9-0.8
		C19.3,1003.8,15.6,1001.7,15.6,1001.7z"/>
</g>
</svg>
