<?xml version="1.0" encoding="utf-8"?>
<!-- Generator: Adobe Illustrator 22.1.0, SVG Export Plug-In . SVG Version: 6.00 Build 0)  -->
<svg version="1.1"
	 id="Livello_1" xmlns:cc="http://creativecommons.org/ns#" xmlns:dc="http://purl.org/dc/elements/1.1/" xmlns:inkscape="http://www.inkscape.org/namespaces/inkscape" xmlns:rdf="http://www.w3.org/1999/02/22-rdf-syntax-ns#" xmlns:sodipodi="http://sodipodi.sourceforge.net/DTD/sodipodi-0.dtd" xmlns:svg="http://www.w3.org/2000/svg"
	 xmlns="http://www.w3.org/2000/svg" xmlns:xlink="http://www.w3.org/1999/xlink" x="0px" y="0px" viewBox="0 0 60.1 60"
	 style="enable-background:new 0 0 60.1 60;" xml:space="preserve">
<style type="text/css">
	.st0{fill:#858585;}
</style>
<g>
	<path class="st0" d="M30,9.7c-7.7,0-14,6.3-14,14c-4.3,2.4-7.1,7-7.1,12.2c0,7.7,6.3,14,14,14c2.6,0,5-0.7,7.1-2
		c2.1,1.2,4.5,2,7.1,2c7.7,0,14-6.3,14-14c0-5.2-2.9-9.8-7.1-12.2C44,16,37.7,9.7,30,9.7z M30,12.4c5.9,0,10.7,4.4,11.3,10.2
		c-1.3-0.4-2.7-0.6-4.2-0.6c-2.6,0-5.1,0.7-7.1,2c-0.2-0.1-0.3-0.2-0.5-0.3c-2-1.1-4.3-1.7-6.7-1.7c-1.5,0-2.9,0.2-4.2,0.6
		C19.3,16.8,24.1,12.4,30,12.4z M22.9,24.5c1.7,0,3.3,0.4,4.8,1.1c-2.1,1.9-3.6,4.5-4.3,7.4c-2.5-1.8-4.2-4.5-4.7-7.7
		C20,24.8,21.4,24.5,22.9,24.5z M37.1,24.5c1.5,0,2.8,0.3,4.1,0.8c-0.4,3.2-2.2,5.9-4.7,7.7c-0.6-2.9-2.1-5.5-4.3-7.4
		C33.8,24.9,35.4,24.5,37.1,24.5z M43.7,26.6c2.9,2.1,4.8,5.4,4.8,9.3c0,6.3-5.1,11.4-11.4,11.4c-1.7,0-3.3-0.4-4.8-1.1
		c0.1-0.1,0.3-0.3,0.4-0.4c2.5-2.5,4.1-6,4.1-9.9C40.3,34,42.9,30.6,43.7,26.6z M16.3,26.7c0.8,4,3.4,7.4,6.8,9.3
		c0,4.1,1.8,7.7,4.6,10.3c-1.5,0.7-3.1,1.1-4.8,1.1c-6.3,0-11.4-5.1-11.4-11.4c0-0.4,0-0.8,0.1-1.2C11.9,31.4,13.6,28.5,16.3,26.7z
		 M30,27.1c2.2,1.8,3.7,4.4,4.1,7.3c-1.3,0.5-2.7,0.8-4.1,0.8c-1.5,0-2.9-0.3-4.1-0.8C26.3,31.4,27.8,28.8,30,27.1z M25.8,37.2
		c1.3,0.4,2.7,0.6,4.2,0.6c1.5,0,2.9-0.2,4.2-0.6c-0.3,3.1-1.9,5.8-4.2,7.7C27.7,43,26.1,40.3,25.8,37.2z"/>
</g>
</svg>
