<?xml version="1.0" encoding="utf-8"?>
<!-- Generator: Adobe Illustrator 22.1.0, SVG Export Plug-In . SVG Version: 6.00 Build 0)  -->
<svg version="1.1" id="Livello_1" xmlns="http://www.w3.org/2000/svg" xmlns:xlink="http://www.w3.org/1999/xlink" x="0px" y="0px"
	 viewBox="0 0 64 85" style="enable-background:new 0 0 64 85;" xml:space="preserve">
<style type="text/css">
	.st0{fill:#858585;}
</style>
<title>add, item, list, new, pluss</title>
<desc>Created with Sketch.</desc>
<g>
	<g transform="translate(-298.000000, -176.000000)">
		<path class="st0" d="M329.4,236.1h-2.3c-0.6,0-1.2-0.6-1.2-1.3s0.5-1.3,1.2-1.3h2.3v-2.5c0-0.7,0.5-1.3,1.2-1.3
			c0.6,0,1.2,0.6,1.2,1.3v2.5h2.3c0.6,0,1.2,0.6,1.2,1.3s-0.5,1.3-1.2,1.3h-2.3v2.5c0,0.7-0.5,1.3-1.2,1.3c-0.6,0-1.2-0.6-1.2-1.3
			V236.1z M315.5,199.7c-0.6,0-1.2,0.6-1.2,1.3v10c0,0.7,0.5,1.3,1.2,1.3h30.1c0.6,0,1.2-0.6,1.2-1.3v-10c0-0.7-0.5-1.3-1.2-1.3
			H315.5z M315.5,197.2h30.1c1.9,0,3.5,1.7,3.5,3.8v10c0,2.1-1.6,3.8-3.5,3.8h-30.1c-1.9,0-3.5-1.7-3.5-3.8v-10
			C312,198.9,313.5,197.2,315.5,197.2z M321.8,233.6c0.6,0,1.2,0.6,1.2,1.3s-0.5,1.3-1.2,1.3h-6.4c-1.9,0-3.5-1.7-3.5-3.8v-10
			c0-2.1,1.6-3.8,3.5-3.8h30.1c1.9,0,3.5,1.7,3.5,3.8v10c0,2.1-1.6,3.8-3.5,3.8h-6.4c-0.6,0-1.2-0.6-1.2-1.3s0.5-1.3,1.2-1.3h6.4
			c0.6,0,1.2-0.6,1.2-1.3v-10c0-0.7-0.5-1.3-1.2-1.3h-30.1c-0.6,0-1.2,0.6-1.2,1.3v10c0,0.7,0.5,1.3,1.2,1.3H321.8z"/>
	</g>
</g>
</svg>
