<?xml version="1.0" encoding="utf-8"?>
<!-- Generator: Adobe Illustrator 22.1.0, SVG Export Plug-In . SVG Version: 6.00 Build 0)  -->
<svg version="1.1"
	 id="Livello_1" xmlns:cc="http://creativecommons.org/ns#" xmlns:dc="http://purl.org/dc/elements/1.1/" xmlns:inkscape="http://www.inkscape.org/namespaces/inkscape" xmlns:rdf="http://www.w3.org/1999/02/22-rdf-syntax-ns#" xmlns:sodipodi="http://sodipodi.sourceforge.net/DTD/sodipodi-0.dtd" xmlns:svg="http://www.w3.org/2000/svg"
	 xmlns="http://www.w3.org/2000/svg" xmlns:xlink="http://www.w3.org/1999/xlink" x="0px" y="0px" viewBox="0 0 42.7 42.7"
	 style="enable-background:new 0 0 42.7 42.7;" xml:space="preserve">
<style type="text/css">
	.st0{fill:#FFFFFF;}
</style>
<g>
	<path class="st0" d="M21.9,2c-0.4,0-0.7,0.3-0.7,0.7v5.8C13.1,8.8,6.5,15.6,6.5,23.9c0,3.6,1.2,6.9,3.3,9.5l-4.6,4.6
		c-0.3,0.3-0.3,0.7,0,1c0.3,0.3,0.7,0.3,1,0l4.5-4.5c2.8,3,6.8,4.9,11.3,4.9c4.4,0,8.4-1.9,11.3-4.9l4.5,4.5c0.3,0.3,0.7,0.3,1,0
		c0.3-0.3,0.3-0.7,0-1l-4.6-4.6c2.1-2.6,3.3-5.9,3.3-9.5c0-8.3-6.6-15-14.7-15.4V2.7C22.6,2.3,22.3,2,21.9,2C22,2,21.9,2,21.9,2z
		 M21.3,9.8V19l-3.1-3.3c-0.1-0.1-0.3-0.2-0.5-0.2c-0.4,0-0.7,0.3-0.7,0.6c0,0.2,0.1,0.4,0.2,0.5l4.3,4.5c0.3,0.3,0.7,0.3,1,0
		c0,0,0,0,0,0l4.3-4.5c0.3-0.3,0.3-0.7,0-1c-0.3-0.3-0.7-0.3-1,0c0,0,0,0,0,0L22.6,19V9.8C30.1,10.2,36,16.3,36,23.9
		c0,3.2-1.1,6.2-2.9,8.5l-6-6l4.5,0.1c0.4,0,0.7-0.3,0.7-0.7c0-0.4-0.3-0.7-0.7-0.7c0,0,0,0,0,0L25.5,25c0,0,0,0-0.1,0
		c-0.4,0-0.6,0.3-0.6,0.7l0.2,6.2c0,0.4,0.3,0.7,0.7,0.7s0.7-0.3,0.7-0.7c0,0,0,0,0,0l-0.1-4.5l6.1,6.1c-2.6,2.8-6.2,4.5-10.3,4.5
		c-4.1,0-7.7-1.7-10.3-4.5l6.1-6.1l-0.1,4.5c0,0.4,0.3,0.7,0.7,0.7c0.4,0,0.7-0.3,0.7-0.6l0.2-6.2c0-0.4-0.3-0.7-0.7-0.7
		c0,0,0,0,0,0l-6.2,0.2c-0.4,0-0.7,0.3-0.7,0.7c0,0.4,0.3,0.7,0.7,0.7l4.5-0.1l-6,6C9,30,7.9,27.1,7.9,23.9
		C7.9,16.3,13.8,10.2,21.3,9.8z"/>
</g>
</svg>
