<?xml version="1.0" encoding="utf-8"?>
<!-- Generator: Adobe Illustrator 22.1.0, SVG Export Plug-In . SVG Version: 6.00 Build 0)  -->
<svg version="1.1" id="Livello_1" xmlns="http://www.w3.org/2000/svg" xmlns:xlink="http://www.w3.org/1999/xlink" x="0px" y="0px"
	 viewBox="0 0 100 125" style="enable-background:new 0 0 100 125;" xml:space="preserve">
<style type="text/css">
	.st0{fill:#858585;}
</style>
<title>57</title>
<path class="st0" d="M42.7,25.3h10.5c0.2,0,0.4,0.2,0.4,0.4l0,0V42c0,0.2-0.2,0.4-0.4,0.4H42.7c-0.2,0-0.4-0.2-0.4-0.4V25.7
	C42.2,25.5,42.4,25.3,42.7,25.3L42.7,25.3z"/>
<path class="st0" d="M9.9,107h80.3c2.7,0,4.9-2.2,4.9-4.9c0,0,0,0,0,0V42.5c0-1.3-0.5-2.5-1.4-3.4L72.9,18.4
	C72,17.5,70.8,17,69.5,17H9.9C7.2,17,5,19.2,5,21.9c0,0,0,0,0,0v80.3C5,104.8,7.2,107,9.9,107C9.9,107,9.9,107,9.9,107z M79.7,59.8
	c1.4,0,2.5,1.1,2.5,2.5c0,0,0,0,0,0v33.6c0,1.4-1.1,2.5-2.5,2.5c0,0,0,0,0,0H20.3c-1.4,0-2.5-1.1-2.5-2.5V62.3
	c0-1.4,1.1-2.5,2.5-2.5c0,0,0,0,0,0L79.7,59.8z M17.6,22.9c0-1.1,0.9-1.9,1.9-1.9c0,0,0,0,0,0h41c1.1,0,1.9,0.9,1.9,1.9c0,0,0,0,0,0
	v21.9c0,1.1-0.9,1.9-1.9,1.9c0,0,0,0,0,0h-41c-1.1,0-1.9-0.9-1.9-1.9c0,0,0,0,0,0V22.9z"/>
</svg>
