<?xml version="1.0" encoding="utf-8"?>
<!-- Generator: Adobe Illustrator 22.1.0, SVG Export Plug-In . SVG Version: 6.00 Build 0)  -->
<svg version="1.1" id="Livello_1" xmlns="http://www.w3.org/2000/svg" xmlns:xlink="http://www.w3.org/1999/xlink" x="0px" y="0px"
	 viewBox="0 0 22 18" style="enable-background:new 0 0 22 18;" xml:space="preserve">
<style type="text/css">
	.st0{fill:#858585;}
</style>
<g>
	<g>
		<path class="st0" d="M18,3.3h-4.2V2.2c0-0.2-0.2-0.4-0.4-0.4H8.9C8.6,1.8,8.5,2,8.5,2.2v1.1H4.3c-0.2,0-0.4,0.2-0.4,0.4v1.9
			C3.9,5.8,4.1,6,4.3,6h0.8l1.1,10.3c0,0.2,0.2,0.3,0.4,0.3h9.1c0.2,0,0.4-0.1,0.4-0.3L17.2,6H18c0.2,0,0.4-0.2,0.4-0.4V3.7
			C18.4,3.5,18.2,3.3,18,3.3z M9.2,2.6H13v0.8H9.2V2.6z M15.4,15.9H6.9L5.9,6h10.6L15.4,15.9z M17.6,5.2H4.7V4.1h4.2h4.6h4.2V5.2z"
			/>
		<path class="st0" d="M13.4,14.4C13.4,14.4,13.4,14.4,13.4,14.4c0.2,0,0.4-0.2,0.4-0.4l0.3-6.5c0-0.2-0.2-0.4-0.4-0.4
			c-0.2,0-0.4,0.2-0.4,0.4L13,14C13,14.2,13.2,14.4,13.4,14.4z"/>
		<path class="st0" d="M8.9,14.4C8.9,14.4,8.9,14.4,8.9,14.4c0.2,0,0.4-0.2,0.4-0.4L9,7.5c0-0.2-0.2-0.4-0.4-0.4
			c-0.2,0-0.4,0.2-0.4,0.4L8.5,14C8.5,14.2,8.7,14.4,8.9,14.4z"/>
		<path class="st0" d="M11.1,14.4c0.2,0,0.4-0.2,0.4-0.4V7.5c0-0.2-0.2-0.4-0.4-0.4s-0.4,0.2-0.4,0.4V14
			C10.8,14.2,10.9,14.4,11.1,14.4z"/>
	</g>
</g>
</svg>
