<?xml version="1.0" encoding="utf-8"?>
<!-- Generator: Adobe Illustrator 22.1.0, SVG Export Plug-In . SVG Version: 6.00 Build 0)  -->
<svg version="1.1" id="Livello_1" xmlns="http://www.w3.org/2000/svg" xmlns:xlink="http://www.w3.org/1999/xlink" x="0px" y="0px"
	 viewBox="0 0 100 125" style="enable-background:new 0 0 100 125;" xml:space="preserve">
<style type="text/css">
	.st0{fill:#FFFFFF;}
</style>
<g id="Livello_2_1_">
</g>
<g id="Livello_1_1_">
	<path class="st0" d="M20.8,91.1c7.2,7,17,11.3,27.8,11.3c4.5,0,8.9-0.8,13.1-2.2c1.1-0.4,1.7-1.6,1.3-2.7s-1.6-1.7-2.7-1.3
		c-3.8,1.3-7.6,1.9-11.7,1.9c-9.2,0-17.4-3.4-23.8-9c2.4-4,5.9-7.4,10-10.1c2.5,1.3,8.4,4,13,4c5.8,0,13.9-4.4,14.2-4.6
		c1.1-0.5,1.4-1.9,0.9-2.9c-0.5-1.1-1.9-1.4-2.9-0.9c-2,1.1-8.2,4.1-12.1,4.1s-10-2.9-12.1-4.1c-0.6-0.3-1.5-0.3-2.2,0
		c-4.8,2.9-8.9,6.8-11.8,11.3C16.4,79.7,13,71.5,13,62.5c0-19.7,16-35.7,35.7-35.7s35.5,15.8,35.5,35.5c0,1.2,1,2.2,2.2,2.2
		s2.2-1,2.2-2.2c0-22.1-18-40-40-40s-40,17.9-40,40c0,11.1,4.5,21.1,11.8,28.3C20.5,90.8,20.7,91,20.8,91.1z"/>
	<path class="st0" d="M32.8,55.9c0,10.2,7.8,20.2,15.7,20.2c8.2,0,15.7-9.7,15.7-20.2c0-11-5.7-17.2-15.7-17.2S32.8,44.9,32.8,55.9z
		 M59.9,55.9c0,8.1-5.6,15.9-11.4,15.9c-6,0-11.4-8.9-11.4-15.9C37,50,39,43,48.5,43S59.9,50,59.9,55.9z"/>
	<path class="st0" d="M78.8,65.6c-6,0-11,5-11,11v1.9h-0.1c-1.2,0-2.2,1-2.2,2.2v18.5c0,1.2,1,2.2,2.2,2.2h22.1c1.2,0,2.2-1,2.2-2.2
		V80.6c0-1.2-1-2.2-2.2-2.2h-0.1v-1.9C89.7,70.5,84.9,65.6,78.8,65.6z M72.2,76.6c0-3.7,3-6.7,6.7-6.7s6.7,3,6.7,6.7v1.9H72.2V76.6z
		 M87.7,97H69.9V82.7h17.8V97z"/>
	<path class="st0" d="M77.4,91.2v2.9c0,0.6,0.5,1.2,1.2,1.2h0.3c0.6,0,1.2-0.5,1.2-1.2v-2.9c0.9-0.4,1.5-1.4,1.5-2.5
		c0-1.5-1.3-2.8-2.8-2.8S76,87.2,76,88.7C75.9,89.8,76.6,90.8,77.4,91.2z"/>
</g>
</svg>
