<?xml version="1.0" encoding="utf-8"?>
<!-- Generator: Adobe Illustrator 22.1.0, SVG Export Plug-In . SVG Version: 6.00 Build 0)  -->
<svg version="1.1" id="Livello_1" xmlns="http://www.w3.org/2000/svg" xmlns:xlink="http://www.w3.org/1999/xlink" x="0px" y="0px"
	 viewBox="0 0 24.5 24.5" style="enable-background:new 0 0 24.5 24.5;" xml:space="preserve">
<style type="text/css">
	.st0{fill:#333333;}
	.st1{fill:#FFFFFF;}
</style>
<rect class="st0" width="24.5" height="24.5"/>
<g>
	<g>
		<path class="st1" d="M21.1,4.7h-5.4V3.3c0-0.3-0.3-0.5-0.5-0.5H9.4C9,2.8,8.9,3.1,8.9,3.3v1.4H3.4C3.2,4.7,2.9,5,2.9,5.2v2.4
			c0,0.3,0.3,0.5,0.5,0.5h1l1.4,13.1c0,0.3,0.3,0.4,0.5,0.4h11.8c0.3,0,0.5-0.1,0.5-0.4l1.4-13.1h1c0.3,0,0.5-0.3,0.5-0.5V5.2
			C21.7,5,21.4,4.7,21.1,4.7z M9.8,3.8h4.9v1H9.8V3.8z M17.8,20.8h-11L5.5,8.2h13.7L17.8,20.8z M20.6,7.1H3.9V5.7h5.4h6h5.4v1.4
			H20.6z"/>
		<path class="st1" d="M15.2,18.9L15.2,18.9c0.3,0,0.5-0.3,0.5-0.5l0.4-8.3c0-0.3-0.3-0.5-0.5-0.5c-0.3,0-0.5,0.3-0.5,0.5l-0.4,8.3
			C14.7,18.6,14.9,18.9,15.2,18.9z"/>
		<path class="st1" d="M9.4,18.9L9.4,18.9c0.3,0,0.5-0.3,0.5-0.5l-0.4-8.3c0-0.3-0.3-0.5-0.5-0.5c-0.3,0-0.5,0.3-0.5,0.5l0.4,8.3
			C8.9,18.6,9.1,18.9,9.4,18.9z"/>
		<path class="st1" d="M12.2,18.9c0.3,0,0.5-0.3,0.5-0.5v-8.3c0-0.3-0.3-0.5-0.5-0.5s-0.5,0.3-0.5,0.5v8.3
			C11.8,18.6,12,18.9,12.2,18.9z"/>
	</g>
</g>
</svg>
