<?xml version="1.0" encoding="utf-8"?>
<!-- Generator: Adobe Illustrator 22.1.0, SVG Export Plug-In . SVG Version: 6.00 Build 0)  -->
<svg version="1.1" id="Livello_1" xmlns="http://www.w3.org/2000/svg" xmlns:xlink="http://www.w3.org/1999/xlink" x="0px" y="0px"
	 viewBox="0 0 47.7 59.6" style="enable-background:new 0 0 47.7 59.6;" xml:space="preserve">
<style type="text/css">
	.st0{fill:#FFFFFF;}
</style>
<title>10.17</title>
<desc>Created with Sketch.</desc>
<g>
	<g>
		<g>
			<path class="st0" d="M29.5,27.5c3.1,1.4,5.2,4.6,5.2,8.1c0,4.9-4,9-9,9h-9c-1.6,0-3-1.3-3-3V28.2V17.7c0-1.6,1.3-3,3-3h7.5
				c4.1,0,7.5,3.4,7.5,7.5C31.7,24.3,30.8,26.2,29.5,27.5z M16.8,26.7h7.5c2.5,0,4.5-2,4.5-4.5s-2-4.5-4.5-4.5h-7.5
				C16.8,17.7,16.8,26.7,16.8,26.7z M16.8,41.6h9c3.3,0,6-2.7,6-6c0-3.3-2.7-6-6-6h-9C16.8,29.7,16.8,41.6,16.8,41.6z"/>
		</g>
	</g>
</g>
</svg>
