<?xml version="1.0" encoding="utf-8"?>
<!-- Generator: Adobe Illustrator 22.1.0, SVG Export Plug-In . SVG Version: 6.00 Build 0)  -->
<svg version="1.1" id="Livello_1" xmlns="http://www.w3.org/2000/svg" xmlns:xlink="http://www.w3.org/1999/xlink" x="0px" y="0px"
	 viewBox="0 0 60 85" style="enable-background:new 0 0 60 85;" xml:space="preserve">
<style type="text/css">
	.st0{fill:#858585;}
</style>
<title>cut, fold, half, picture, edit, image</title>
<desc>Created with Sketch.</desc>
<g>
	<g transform="translate(-540.000000, -896.000000)">
		<path class="st0" d="M564.2,957.4c0.8,0,1.4,0.6,1.4,1.4c0,0.8-0.6,1.4-1.4,1.4h-9.9c-3.1,0-5.6-2.5-5.6-5.6v-31
			c0-3.1,2.5-5.6,5.6-5.6h9.9c0.8,0,1.4,0.6,1.4,1.4c0,0.8-0.6,1.4-1.4,1.4h-9.9c-1.6,0-2.8,1.3-2.8,2.8v31c0,1.6,1.3,2.8,2.8,2.8
			H564.2z M575.5,920.7c-0.8,0-1.4-0.6-1.4-1.4c0-0.8,0.6-1.4,1.4-1.4s1.4,0.6,1.4,1.4C576.9,920.1,576.3,920.7,575.5,920.7z
			 M581.8,920.7c-0.8,0-1.4-0.6-1.4-1.4c0-0.8,0.6-1.4,1.4-1.4c0.8,0,1.4,0.6,1.4,1.4C583.2,920.1,582.6,920.7,581.8,920.7z
			 M588.2,921.8c-0.8,0-1.4-0.6-1.4-1.4s0.6-1.4,1.4-1.4s1.4,0.6,1.4,1.4S589,921.8,588.2,921.8z M588.2,959.1
			c-0.8,0-1.4-0.6-1.4-1.4s0.6-1.4,1.4-1.4s1.4,0.6,1.4,1.4S589,959.1,588.2,959.1z M589.6,953.1c-0.8,0-1.4-0.6-1.4-1.4
			s0.6-1.4,1.4-1.4c0.8,0,1.4,0.6,1.4,1.4S590.4,953.1,589.6,953.1z M589.6,927.8c-0.8,0-1.4-0.6-1.4-1.4s0.6-1.4,1.4-1.4
			c0.8,0,1.4,0.6,1.4,1.4S590.4,927.8,589.6,927.8z M589.6,934.1c-0.8,0-1.4-0.6-1.4-1.4c0-0.8,0.6-1.4,1.4-1.4
			c0.8,0,1.4,0.6,1.4,1.4C591,933.5,590.4,934.1,589.6,934.1z M589.6,946.8c-0.8,0-1.4-0.6-1.4-1.4c0-0.8,0.6-1.4,1.4-1.4
			c0.8,0,1.4,0.6,1.4,1.4C591,946.2,590.4,946.8,589.6,946.8z M589.6,940.4c-0.8,0-1.4-0.6-1.4-1.4s0.6-1.4,1.4-1.4
			c0.8,0,1.4,0.6,1.4,1.4S590.4,940.4,589.6,940.4z M575.5,960.2c-0.8,0-1.4-0.6-1.4-1.4c0-0.8,0.6-1.4,1.4-1.4s1.4,0.6,1.4,1.4
			C576.9,959.5,576.3,960.2,575.5,960.2z M581.8,960.2c-0.8,0-1.4-0.6-1.4-1.4c0-0.8,0.6-1.4,1.4-1.4c0.8,0,1.4,0.6,1.4,1.4
			C583.2,959.5,582.6,960.2,581.8,960.2z M568.4,916.5c0-0.8,0.6-1.4,1.4-1.4s1.4,0.6,1.4,1.4v45.1c0,0.8-0.6,1.4-1.4,1.4
			s-1.4-0.6-1.4-1.4V916.5z"/>
	</g>
</g>
</svg>
