<?xml version="1.0" encoding="utf-8"?>
<!-- Generator: Adobe Illustrator 22.1.0, SVG Export Plug-In . SVG Version: 6.00 Build 0)  -->
<svg version="1.1" xmlns="http://www.w3.org/2000/svg" xmlns:xlink="http://www.w3.org/1999/xlink" x="0px" y="0px"
	 viewBox="0 0 100 125" style="enable-background:new 0 0 100 125;" xml:space="preserve">
<style type="text/css">
	.st0{fill:#858585;}
</style>
<g id="Livello_2">
</g>
<g id="Livello_1">
	<g>
		<path class="st0" d="M80.4,55.4H26.6c-1.9,0-3.3,1.7-3.1,3.4l6.3,50.7c0.5,3.8,3.7,6.6,7.6,6.6h32.2c3.8,0,7.1-2.8,7.6-6.6
			l6.3-50.7C83.6,57,82.2,55.4,80.4,55.4z M41.5,105.1c-0.1,0-0.1,0-0.2,0c-1.2,0-2.1-0.9-2.3-2.1L36.2,69c-0.1-1.3,0.8-2.4,2.1-2.5
			c1.3-0.1,2.4,0.8,2.5,2.1l2.8,33.9C43.8,103.9,42.8,105,41.5,105.1z M55.7,102.8c0,1.3-1.1,2.3-2.3,2.3s-2.3-1.1-2.3-2.3V68.9
			c0-1.3,1.1-2.3,2.3-2.3s2.3,1.1,2.3,2.3V102.8z M67.9,102.9c-0.1,1.2-1.1,2.1-2.3,2.1c-0.1,0-0.1,0-0.2,0
			c-1.3-0.1-2.1-1.2-2.1-2.5l2.8-33.9c0.1-1.3,1.2-2.1,2.5-2.1c1.3,0.1,2.1,1.2,2.1,2.5L67.9,102.9z"/>
		<path class="st0" d="M73.9,4.9c-1.3-1.7-3.7-1.9-5.3-0.7L52.8,16.6l-5.9-2.5c-2.6-1.1-5.6-0.7-7.8,1.1l-6.3,5
			c-2.3,1.8-3.3,4.6-3,7.4l0.9,6.3L15,46.1c-1.7,1.3-1.9,3.7-0.7,5.3c0.7,0.9,1.9,1.4,3,1.4c0.8,0,1.7-0.2,2.4-0.8l53.6-41.8
			C74.9,9,75.2,6.6,73.9,4.9z M34.7,26.8c-0.1-0.9,0.2-2,1.1-2.6l6.3-5c0.8-0.6,1.9-0.7,2.7-0.4l3.3,1.4L35.2,30.3L34.7,26.8z"/>
		<path class="st0" d="M67.1,50.5l6.5-0.9c0.7-0.1,1.1-0.7,0.9-1.4l-0.9-6.5c-0.1-0.7-0.7-1.1-1.4-0.9l-6.5,0.9
			c-0.7,0.1-1.1,0.7-0.9,1.4l0.9,6.5C66,50.1,66.5,50.6,67.1,50.5z"/>
		<path class="st0" d="M56.7,41.5C56.2,41,55.5,41,55,41.4l-3.9,3.6c-0.5,0.5-0.5,1.2-0.1,1.7l3.6,3.9c0.5,0.5,1.2,0.5,1.7,0.1
			l3.9-3.6c0.5-0.5,0.5-1.2,0.1-1.7L56.7,41.5z"/>
		<path class="st0" d="M62.2,38.9l3.6-5.3c0.4-0.6,0.2-1.3-0.4-1.7L60,28.3c-0.6-0.4-1.3-0.2-1.7,0.4L54.8,34
			c-0.4,0.6-0.2,1.3,0.4,1.7l5.3,3.6C61.1,39.6,61.8,39.5,62.2,38.9z"/>
	</g>
</g>
</svg>
