<?xml version="1.0" encoding="utf-8"?>
<!-- Generator: Adobe Illustrator 22.1.0, SVG Export Plug-In . SVG Version: 6.00 Build 0)  -->
<svg version="1.1"
	 id="Livello_1" xmlns:cc="http://creativecommons.org/ns#" xmlns:dc="http://purl.org/dc/elements/1.1/" xmlns:inkscape="http://www.inkscape.org/namespaces/inkscape" xmlns:rdf="http://www.w3.org/1999/02/22-rdf-syntax-ns#" xmlns:sodipodi="http://sodipodi.sourceforge.net/DTD/sodipodi-0.dtd" xmlns:svg="http://www.w3.org/2000/svg"
	 xmlns="http://www.w3.org/2000/svg" xmlns:xlink="http://www.w3.org/1999/xlink" x="0px" y="0px" viewBox="0 0 61.5 59.9"
	 style="enable-background:new 0 0 61.5 59.9;" xml:space="preserve">
<style type="text/css">
	.st0{fill:#FFFFFF;}
</style>
<g transform="translate(0,-952.36218)">
	<path class="st0" d="M39.1,965.7c-0.4-0.2-0.9-0.1-1.1,0.3l-1.5,2.7c-0.2,0.4-0.1,0.9,0.3,1.1c0.4,0.2,0.9,0.1,1.1-0.3l1.5-2.7
		C39.6,966.4,39.4,965.9,39.1,965.7z M27.4,964.1c-0.1-0.1-0.4-0.1-0.6-0.1c-0.4,0.1-0.6,0.5-0.6,0.9l0.8,2.9
		c0.1,0.4,0.5,0.6,0.9,0.6c0.4-0.1,0.6-0.5,0.6-0.9l-0.8-2.9C27.6,964.4,27.6,964.2,27.4,964.1z M46.2,975.1
		c-0.1-0.1-0.4-0.1-0.6-0.1l-2.9,0.8c-0.4,0.1-0.6,0.5-0.6,0.9c0.1,0.4,0.5,0.6,0.9,0.6l2.9-0.8c0.4-0.1,0.6-0.5,0.6-0.9
		C46.5,975.3,46.4,975.1,46.2,975.1L46.2,975.1z M35.6,971.7c-4.1-2.4-9.8-1.4-12.4,3c-3.2,5.5-0.1,9-1.7,12.9l7.4,4.3
		c2.5-3.3,7.1-2.4,10.3-7.9C41.8,979.4,39.6,974.1,35.6,971.7z M32.4,972.5L32.4,972.5C32.4,972.5,32.5,972.5,32.4,972.5
		c0.4,0.2,0.6,0.7,0.4,1.1c-0.1,0.3-0.5,0.4-0.8,0.4c-2-0.4-4,0.4-5.4,2c-0.3,0.4-0.8,0.4-1.1,0.1c-0.3-0.3-0.4-0.8-0.1-1.1
		c1.7-2,4.2-2.9,6.8-2.5C32.2,972.5,32.3,972.5,32.4,972.5L32.4,972.5z M18,971.3c-0.4-0.2-0.9-0.1-1.1,0.3
		c-0.2,0.4-0.1,0.9,0.3,1.1l2.7,1.5c0.4,0.2,0.9,0.1,1.1-0.3c0.2-0.4,0.1-0.9-0.3-1.1L18,971.3z M42,985.2c-0.4-0.2-0.9-0.1-1.1,0.3
		s-0.1,0.9,0.3,1.1l2.7,1.5c0.4,0.2,0.9,0.1,1.1-0.3s0.1-0.9-0.3-1.1L42,985.2z M20.8,988.9l-0.8,1.4l7.3,4.2l0.8-1.4L20.8,988.9
		L20.8,988.9z M19.2,991.6l-0.4,0.6c-0.4,0.8-0.1,1.7,0.6,2.1l4.7,2.7c0.7,0.4,1.7,0.2,2.1-0.6l0.4-0.6
		C26.6,995.8,19.2,991.6,19.2,991.6z M20,995.6c-0.4,0.7-0.1,1.7,0.6,2.1c0.7,0.4,1.7,0.1,2.1-0.6L20,995.6z"/>
</g>
</svg>
