<?xml version="1.0" encoding="utf-8"?>
<!-- Generator: Adobe Illustrator 22.1.0, SVG Export Plug-In . SVG Version: 6.00 Build 0)  -->
<svg version="1.1" id="Livello_1" xmlns="http://www.w3.org/2000/svg" xmlns:xlink="http://www.w3.org/1999/xlink" x="0px" y="0px"
	 viewBox="0 0 47.7 59.6" style="enable-background:new 0 0 47.7 59.6;" xml:space="preserve">
<style type="text/css">
	.st0{fill:#858585;}
</style>
<title>10.18</title>
<desc>Created with Sketch.</desc>
<g>
	<g>
		<g>
			<path class="st0" d="M28.9,13.6h8.8c1.1,0,2-0.9,2-2c0-1.1-0.9-2-2-2h-20c-1.1,0-2,0.9-2,2c0,1.1,0.9,2,2,2h7.2l-6.4,32H9.7
				c-1.1,0-2,0.9-2,2c0,1.1,0.9,2,2,2h20c1.1,0,2-0.9,2-2c0-1.1-0.9-2-2-2h-7.2L28.9,13.6z"/>
		</g>
	</g>
</g>
</svg>
