<?xml version="1.0" encoding="utf-8"?>
<!-- Generator: Adobe Illustrator 22.1.0, SVG Export Plug-In . SVG Version: 6.00 Build 0)  -->
<svg version="1.1" id="Livello_1" xmlns="http://www.w3.org/2000/svg" xmlns:xlink="http://www.w3.org/1999/xlink" x="0px" y="0px"
	 viewBox="0 0 48 60" style="enable-background:new 0 0 48 60;" xml:space="preserve">
<style type="text/css">
	.st0{fill:#858585;}
</style>
<g>
	<g>
		<g>
			<path class="st0" d="M24,31.8c1.5-1.2,3.5-1.7,5.5-1.3c0.4-3.3-2.2-6.2-5.5-6.2c-3.3,0-5.9,2.9-5.5,6.2
				C20.4,30.1,22.4,30.6,24,31.8z"/>
			<path class="st0" d="M19.8,42.6c1.2,0,2.4-0.4,3.3-1.1C21.8,40,21.3,38,21.5,36c-1.8-0.7-3.3-2.2-3.9-4.1c-2,0.8-3.4,2.8-3.4,5.1
				C14.3,40.1,16.8,42.6,19.8,42.6z"/>
			<path class="st0" d="M24,48.3c7.9,0,14.3-6.4,14.3-14.3c0-7.9-6.4-14.3-14.3-14.3S9.7,26.1,9.7,34C9.7,41.9,16.1,48.3,24,48.3z
				 M17.4,30.8c-0.6-4,2.5-7.7,6.6-7.7c4.1,0,7.2,3.6,6.6,7.7c2.5,1,4.2,3.4,4.2,6.2c0,3.7-3,6.7-6.7,6.7c-1.6,0-3-0.5-4.2-1.5
				c-1.1,0.9-2.6,1.5-4.2,1.5c-3.7,0-6.7-3-6.7-6.7C13.2,34.2,14.9,31.8,17.4,30.8z"/>
			<path class="st0" d="M18.8,31.6c0.5,1.5,1.6,2.7,3.1,3.3c0.3-0.9,0.7-1.6,1.3-2.3C21.9,31.7,20.3,31.3,18.8,31.6z"/>
			<path class="st0" d="M25.3,36.4c-0.9,0.2-1.8,0.2-2.7,0C22.5,38,23,39.5,24,40.7C25,39.5,25.5,38,25.3,36.4z"/>
			<path class="st0" d="M22.9,35.3c0.7,0.1,1.4,0.1,2.1,0c-0.2-0.7-0.6-1.3-1.1-1.9C23.5,33.9,23.1,34.6,22.9,35.3z"/>
			<path class="st0" d="M26.4,36c0.3,1.9-0.3,3.9-1.6,5.4c0.9,0.7,2.1,1.1,3.3,1.1c3,0,5.5-2.5,5.5-5.5c0-2.3-1.4-4.2-3.4-5.1
				C29.7,33.8,28.2,35.3,26.4,36z"/>
			<path class="st0" d="M10.3,18c0.6,0,1.1-0.5,1.1-1.1s-0.5-1.1-1.1-1.1s-1.1,0.5-1.1,1.1S9.6,18,10.3,18z"/>
			<path class="st0" d="M29.2,31.6c-1.5-0.3-3.1,0.1-4.4,1c0.6,0.7,1,1.4,1.3,2.3C27.6,34.3,28.7,33.1,29.2,31.6z"/>
			<path class="st0" d="M42.8,19.2c1.6,0,2.9-1.3,2.9-2.9s-1.3-2.9-2.9-2.9c-1.6,0-2.9,1.3-2.9,2.9S41.3,19.2,42.8,19.2z"/>
			<path class="st0" d="M1.7,46.6c0.9,0,1.7-0.8,1.7-1.7s-0.8-1.7-1.7-1.7S0,43.9,0,44.9S0.8,46.6,1.7,46.6z"/>
			<circle class="st0" cx="47.1" cy="35.4" r="0.9"/>
			<circle class="st0" cx="42" cy="23.4" r="0.9"/>
			<circle class="st0" cx="30" cy="12" r="0.9"/>
			<circle class="st0" cx="16.8" cy="16.6" r="0.9"/>
			<circle class="st0" cx="2.6" cy="20" r="0.9"/>
			<circle class="st0" cx="5.4" cy="37.1" r="0.9"/>
			<circle class="st0" cx="39.7" cy="46.9" r="0.9"/>
		</g>
	</g>
</g>
</svg>
