<?xml version="1.0" encoding="utf-8"?>
<!-- Generator: Adobe Illustrator 22.1.0, SVG Export Plug-In . SVG Version: 6.00 Build 0)  -->
<svg version="1.1" id="Livello_1" xmlns="http://www.w3.org/2000/svg" xmlns:xlink="http://www.w3.org/1999/xlink" x="0px" y="0px"
	 viewBox="0 0 47.7 59.6" style="enable-background:new 0 0 47.7 59.6;" xml:space="preserve">
<style type="text/css">
	.st0{fill:#858585;}
</style>
<title>10.17</title>
<desc>Created with Sketch.</desc>
<g>
	<g>
		<g>
			<path class="st0" d="M31.7,26.7c4.1,1.9,7,6.1,7,10.9c0,6.6-5.4,12-12,12h-12c-2.2,0-4-1.8-4-4v-18v-14c0-2.2,1.8-4,4-4h10
				c5.5,0,10,4.5,10,10C34.7,22.4,33.5,24.9,31.7,26.7z M14.7,25.6h10c3.3,0,6-2.7,6-6c0-3.3-2.7-6-6-6h-10V25.6z M14.7,45.6h12
				c4.4,0,8-3.6,8-8c0-4.4-3.6-8-8-8h-12V45.6z"/>
		</g>
	</g>
</g>
</svg>
