<?xml version="1.0" encoding="utf-8"?>
<!-- Generator: Adobe Illustrator 22.1.0, SVG Export Plug-In . SVG Version: 6.00 Build 0)  -->
<svg version="1.1" id="Livello_1" xmlns="http://www.w3.org/2000/svg" xmlns:xlink="http://www.w3.org/1999/xlink" x="0px" y="0px"
	 viewBox="0 0 100 125" style="enable-background:new 0 0 100 125;" xml:space="preserve">
<style type="text/css">
	.st0{fill:#858585;}
</style>
<title>collection 1</title>
<path class="st0" d="M50,40.5c-11.8,0-21.5,9.6-21.5,21.5S38.2,83.5,50,83.5S71.5,73.8,71.5,62C71.4,50.2,61.8,40.6,50,40.5z
	 M50,78.5c-9.1,0-16.5-7.4-16.5-16.5S40.9,45.5,50,45.5S66.5,52.9,66.5,62C66.4,71.1,59.1,78.4,50,78.5z"/>
<path class="st0" d="M88.6,52.6l-4.4-0.2c-1.3-0.2-2.5-1.1-3-2.4c-0.2-0.5-0.4-1.1-0.7-1.6c-0.5-1.3-0.4-2.7,0.4-3.8l3-3.3
	c2.4-2.7,2.3-6.7-0.2-9.2l-3.8-3.8c-2.5-2.5-6.6-2.6-9.2-0.2l-3.3,3c-1.1,0.8-2.6,0.9-3.8,0.4c-0.5-0.2-1.1-0.5-1.6-0.7
	c-1.3-0.5-2.2-1.6-2.4-3l-0.2-4.4c-0.2-3.6-3.1-6.3-6.7-6.4h-5.3c-3.6,0-6.5,2.8-6.7,6.4l-0.2,4.4c-0.2,1.3-1.1,2.5-2.4,3
	c-0.5,0.2-1.1,0.4-1.6,0.7c-1.3,0.5-2.7,0.4-3.8-0.4l-3.3-3c-2.7-2.4-6.7-2.3-9.2,0.2l-3.8,3.8c-2.5,2.5-2.6,6.6-0.2,9.2l3,3.3
	c0.8,1.1,0.9,2.6,0.4,3.8c-0.2,0.5-0.5,1.1-0.7,1.6c-0.5,1.3-1.6,2.2-3,2.4l-4.4,0.2C7.8,52.9,5,55.8,5,59.3v5.3
	c0,3.6,2.8,6.5,6.4,6.7l4.4,0.2c1.3,0.2,2.5,1.1,3,2.4c0.2,0.5,0.4,1.1,0.7,1.6c0.5,1.3,0.4,2.7-0.4,3.8l-3,3.3
	c-2.4,2.7-2.3,6.7,0.2,9.2l3.8,3.8c2.5,2.5,6.6,2.6,9.2,0.2l3.3-3c1.1-0.8,2.6-0.9,3.8-0.4c0.5,0.2,1.1,0.5,1.6,0.7
	c1.3,0.5,2.2,1.6,2.4,3l0.2,4.4c0.2,3.6,3.1,6.3,6.7,6.4h5.3c3.6,0,6.5-2.8,6.7-6.4l0.2-4.4c0.2-1.3,1.1-2.5,2.4-3
	c0.5-0.2,1.1-0.4,1.6-0.7c1.3-0.5,2.7-0.4,3.8,0.4l3.3,3c2.7,2.4,6.7,2.3,9.2-0.2l3.8-3.8c2.5-2.5,2.6-6.6,0.2-9.2l-3-3.3
	c-0.8-1.1-0.9-2.6-0.4-3.8c0.2-0.5,0.5-1.1,0.7-1.6c0.5-1.3,1.6-2.2,3-2.4l4.4-0.2c3.6-0.2,6.3-3.1,6.4-6.7v-5.3
	C95,55.8,92.2,52.9,88.6,52.6z M90,64.7c0,0.9-0.7,1.6-1.6,1.7L84,66.6c-3.3,0.3-6.2,2.5-7.4,5.6c-0.2,0.5-0.4,0.9-0.6,1.4
	c-1.3,3.1-0.9,6.6,1.3,9.2l3,3.3c0.6,0.7,0.6,1.7-0.1,2.3l-3.8,3.8c-0.6,0.6-1.7,0.6-2.3,0.1l-3.3-3c-2.6-2.1-6.1-2.6-9.2-1.3
	c-0.5,0.2-0.9,0.4-1.4,0.6c-3.1,1.2-5.3,4.1-5.6,7.4l-0.2,4.4c-0.1,0.9-0.8,1.6-1.7,1.6h-5.3c-0.9,0-1.6-0.7-1.7-1.6L45.4,96
	c-0.3-3.3-2.5-6.2-5.6-7.4c-0.5-0.2-0.9-0.4-1.4-0.6c-1.1-0.5-2.4-0.7-3.6-0.7c-2,0-4,0.7-5.6,2l-3.3,3c-0.7,0.6-1.7,0.6-2.3-0.1
	l-3.8-3.8c-0.6-0.6-0.6-1.7-0.1-2.3l3-3.3c2.1-2.6,2.6-6.1,1.3-9.2c-0.2-0.5-0.4-0.9-0.6-1.4c-1.2-3.1-4.1-5.3-7.4-5.6l-4.4-0.2
	c-0.9-0.1-1.6-0.8-1.6-1.7v-5.3c0-0.9,0.7-1.6,1.6-1.7l4.4-0.2c3.3-0.3,6.2-2.5,7.4-5.6c0.2-0.5,0.4-0.9,0.6-1.4
	c1.3-3.1,0.9-6.6-1.3-9.2l-3-3.3c-0.6-0.7-0.6-1.7,0.1-2.3l3.8-3.8c0.6-0.6,1.7-0.6,2.3-0.1l3.3,3c2.6,2.1,6.1,2.6,9.2,1.3
	c0.5-0.2,0.9-0.4,1.4-0.6c3.1-1.2,5.3-4.1,5.6-7.4l0.2-4.4c0.1-0.9,0.8-1.6,1.7-1.6h5.3c0.9,0,1.6,0.7,1.7,1.6l0.2,4.4
	c0.3,3.3,2.5,6.2,5.6,7.4c0.5,0.2,0.9,0.4,1.4,0.6c3.1,1.3,6.6,0.9,9.2-1.3l3.3-3c0.7-0.6,1.7-0.6,2.3,0.1l3.8,3.8
	c0.6,0.6,0.6,1.7,0.1,2.3l-3,3.3c-2.1,2.6-2.6,6.1-1.3,9.2c0.2,0.5,0.4,0.9,0.6,1.4c1.2,3.1,4.1,5.3,7.4,5.6l4.4,0.2
	c0.9,0.1,1.6,0.8,1.6,1.7V64.7z"/>
</svg>
