<?xml version="1.0" encoding="utf-8"?>
<!-- Generator: Adobe Illustrator 22.1.0, SVG Export Plug-In . SVG Version: 6.00 Build 0)  -->
<svg version="1.1" id="Livello_1" xmlns="http://www.w3.org/2000/svg" xmlns:xlink="http://www.w3.org/1999/xlink" x="0px" y="0px"
	 viewBox="0 0 60.6 59.6" style="enable-background:new 0 0 60.6 59.6;" xml:space="preserve">
<style type="text/css">
	.st0{fill:#858585;}
</style>
<title>Artboard 41 copy 72</title>
<path class="st0" d="M10.1,15.2h28.1c0.6,0,1.1-0.4,1.1-1s-0.4-1-1.1-1H10.1c-0.6,0-1.1,0.4-1.1,1S9.4,15.2,10.1,15.2z"/>
<path class="st0" d="M10.1,23h40.7c0.6,0,1.1-0.4,1.1-1s-0.4-1-1.1-1H10.1C9.5,21,9,21.5,9,22S9.4,23,10.1,23z"/>
<path class="st0" d="M10.1,31.1h28.1c0.6,0,1.1-0.4,1.1-1s-0.4-1-1.1-1H10.1c-0.6,0-1.1,0.4-1.1,1S9.4,31.1,10.1,31.1z"/>
<path class="st0" d="M50.8,36.9H10.1c-0.6,0-1.1,0.4-1.1,1s0.4,1,1.1,1h40.7c0.6,0,1.1-0.4,1.1-1S51.3,36.9,50.8,36.9z"/>
<path class="st0" d="M38,44.8H10.1c-0.6,0-1.1,0.4-1.1,1s0.4,1,1.1,1h28.1c0.6,0,1.1-0.4,1.1-1C39.2,45.2,38.7,44.8,38,44.8z"/>
</svg>
