<?xml version="1.0" encoding="utf-8"?>
<!-- Generator: Adobe Illustrator 22.1.0, SVG Export Plug-In . SVG Version: 6.00 Build 0)  -->
<svg version="1.1" id="Livello_1" xmlns="http://www.w3.org/2000/svg" xmlns:xlink="http://www.w3.org/1999/xlink" x="0px" y="0px"
	 viewBox="0 0 60.1 59.9" style="enable-background:new 0 0 60.1 59.9;" xml:space="preserve">
<style type="text/css">
	.st0{fill:#858585;}
</style>
<title>Artboard 41 copy 75</title>
<path class="st0" d="M9.9,14.4h40c0.6,0,1.1-0.5,1.1-1.1s-0.5-1.1-1.1-1.1h-40c-0.6,0-1.1,0.5-1.1,1.1S9.3,14.4,9.9,14.4z"/>
<path class="st0" d="M49.9,20.7h-40c-0.6,0-1.1,0.5-1.1,1.1s0.5,1.1,1.1,1.1h40c0.6,0,1.1-0.5,1.1-1.1S50.6,20.7,49.9,20.7z"/>
<path class="st0" d="M49.9,29h-40c-0.6,0-1.1,0.5-1.1,1.1c0,0.6,0.5,1.1,1.1,1.1h40c0.6,0,1.1-0.5,1.1-1.1S50.6,29,49.9,29z"/>
<path class="st0" d="M49.9,37.4h-40c-0.6,0-1.1,0.5-1.1,1.1c0,0.6,0.5,1.1,1.1,1.1h40c0.6,0,1.1-0.5,1.1-1.1
	C51,37.9,50.6,37.4,49.9,37.4z"/>
<path class="st0" d="M49.9,45.8h-40c-0.6,0-1.1,0.5-1.1,1.1c0,0.6,0.5,1.1,1.1,1.1h40c0.6,0,1.1-0.5,1.1-1.1
	C51,46.2,50.6,45.8,49.9,45.8z"/>
</svg>
