<?xml version="1.0" encoding="utf-8"?>
<!-- Generator: Adobe Illustrator 22.1.0, SVG Export Plug-In . SVG Version: 6.00 Build 0)  -->
<svg version="1.1" id="Livello_1" xmlns="http://www.w3.org/2000/svg" xmlns:xlink="http://www.w3.org/1999/xlink" x="0px" y="0px"
	 viewBox="0 0 60.1 59.9" style="enable-background:new 0 0 60.1 59.9;" xml:space="preserve">
<style type="text/css">
	.st0{fill:#FFFFFF;}
</style>
<title>Artboard 41 copy 75</title>
<path class="st0" d="M16.6,18.2h25.7c0.4,0,0.7-0.4,0.7-0.8s-0.3-0.8-0.7-0.8H16.6c-0.4,0-0.7,0.4-0.7,0.8S16.2,18.2,16.6,18.2z"/>
<path class="st0" d="M42.3,22.8H16.6c-0.4,0-0.7,0.4-0.7,0.8c0,0.4,0.3,0.8,0.7,0.8h25.7c0.4,0,0.7-0.4,0.7-0.8
	C43,23.2,42.7,22.8,42.3,22.8z"/>
<path class="st0" d="M42.3,29H16.6c-0.4,0-0.7,0.4-0.7,0.8c0,0.4,0.3,0.8,0.7,0.8h25.7c0.4,0,0.7-0.4,0.7-0.8
	C43,29.3,42.7,29,42.3,29z"/>
<path class="st0" d="M42.3,35.2H16.6c-0.4,0-0.7,0.4-0.7,0.8s0.3,0.8,0.7,0.8h25.7c0.4,0,0.7-0.4,0.7-0.8S42.7,35.2,42.3,35.2z"/>
<path class="st0" d="M42.3,41.4H16.6c-0.4,0-0.7,0.4-0.7,0.8c0,0.4,0.3,0.8,0.7,0.8h25.7c0.4,0,0.7-0.4,0.7-0.8
	C43,41.7,42.7,41.4,42.3,41.4z"/>
</svg>
