<?xml version="1.0" encoding="utf-8"?>
<!-- Generator: Adobe Illustrator 22.1.0, SVG Export Plug-In . SVG Version: 6.00 Build 0)  -->
<svg version="1.1" id="Livello_1" xmlns="http://www.w3.org/2000/svg" xmlns:xlink="http://www.w3.org/1999/xlink" x="0px" y="0px"
	 viewBox="0 0 60.2 60.6" style="enable-background:new 0 0 60.2 60.6;" xml:space="preserve">
<style type="text/css">
	.st0{fill:#858585;}
</style>
<title>Artboard 41 copy 73</title>
<path class="st0" d="M15.9,15.2h28.1c0.6,0,1.1-0.5,1.1-1.1S44.6,13,43.9,13H15.9c-0.6,0-1.1,0.5-1.1,1.1S15.3,15.2,15.9,15.2z"/>
<path class="st0" d="M9.6,23.7h40.7c0.6,0,1.1-0.5,1.1-1.1s-0.5-1.1-1.1-1.1H9.6c-0.6,0-1.1,0.5-1.1,1.1S8.9,23.7,9.6,23.7z"/>
<path class="st0" d="M15.9,30.2c-0.6,0-1.1,0.5-1.1,1.1s0.5,1.1,1.1,1.1h28.1c0.6,0,1.1-0.5,1.1-1.1s-0.5-1.1-1.1-1.1H15.9z"/>
<path class="st0" d="M50.3,38.6H9.6c-0.6,0-1.1,0.5-1.1,1.1s0.5,1.1,1.1,1.1h40.7c0.6,0,1.1-0.5,1.1-1.1
	C51.3,39.1,50.9,38.6,50.3,38.6z"/>
<path class="st0" d="M43.9,47.1H15.9c-0.6,0-1.1,0.5-1.1,1.1s0.5,1.1,1.1,1.1h28.1c0.6,0,1.1-0.5,1.1-1.1
	C45,47.7,44.6,47.1,43.9,47.1z"/>
</svg>
