<?xml version="1.0" encoding="utf-8"?>
<!-- Generator: Adobe Illustrator 22.1.0, SVG Export Plug-In . SVG Version: 6.00 Build 0)  -->
<svg version="1.1" id="Livello_1" xmlns="http://www.w3.org/2000/svg" xmlns:xlink="http://www.w3.org/1999/xlink" x="0px" y="0px"
	 viewBox="0 0 60.2 60.5" style="enable-background:new 0 0 60.2 60.5;" xml:space="preserve">
<style type="text/css">
	.st0{fill:#858585;}
</style>
<title>Artboard 41 copy 74</title>
<path class="st0" d="M22.4,14.7h27.9c0.6,0,1.1-0.5,1.1-1.1c0-0.6-0.5-1.1-1.1-1.1H22.4c-0.6,0-1.1,0.5-1.1,1.1
	C21.1,14.3,21.7,14.7,22.4,14.7z"/>
<path class="st0" d="M50.3,21.1H9.7c-0.6,0-1.1,0.5-1.1,1.1c0,0.6,0.5,1.1,1.1,1.1h40.6c0.6,0,1.1-0.5,1.1-1.1S50.9,21.1,50.3,21.1z
	"/>
<path class="st0" d="M50.3,29.6H22.4c-0.6,0-1.1,0.5-1.1,1.1c0,0.6,0.5,1.1,1.1,1.1h27.9c0.6,0,1.1-0.5,1.1-1.1S50.9,29.6,50.3,29.6
	z"/>
<path class="st0" d="M50.3,38H9.7c-0.6,0-1.1,0.5-1.1,1.1s0.5,1.1,1.1,1.1h40.6c0.6,0,1.1-0.5,1.1-1.1S50.9,38,50.3,38z"/>
<path class="st0" d="M50.3,46.5H22.4c-0.6,0-1.1,0.5-1.1,1.1s0.5,1.1,1.1,1.1h27.9c0.6,0,1.1-0.5,1.1-1.1
	C51.4,47.1,50.9,46.5,50.3,46.5z"/>
</svg>
