<?xml version="1.0" encoding="utf-8"?>
<!-- Generator: Adobe Illustrator 22.1.0, SVG Export Plug-In . SVG Version: 6.00 Build 0)  -->
<svg version="1.1" id="Livello_1" xmlns="http://www.w3.org/2000/svg" xmlns:xlink="http://www.w3.org/1999/xlink" x="0px" y="0px"
	 viewBox="0 0 60.2 60.5" style="enable-background:new 0 0 60.2 60.5;" xml:space="preserve">
<style type="text/css">
	.st0{fill:#FFFFFF;}
</style>
<title>Artboard 41 copy 74</title>
<path class="st0" d="M24.6,18.8h17.6c0.4,0,0.7-0.4,0.7-0.8c0-0.4-0.3-0.8-0.7-0.8H24.6c-0.4,0-0.7,0.4-0.7,0.8
	C23.8,18.5,24.2,18.8,24.6,18.8z"/>
<path class="st0" d="M42.2,23.5H16.6c-0.4,0-0.7,0.4-0.7,0.8c0,0.4,0.3,0.8,0.7,0.8h25.6c0.4,0,0.7-0.4,0.7-0.8
	C42.9,23.9,42.6,23.5,42.2,23.5z"/>
<path class="st0" d="M42.2,29.7H24.6c-0.4,0-0.7,0.4-0.7,0.8c0,0.4,0.3,0.8,0.7,0.8h17.6c0.4,0,0.7-0.4,0.7-0.8
	C42.9,30.1,42.6,29.7,42.2,29.7z"/>
<path class="st0" d="M42.2,35.9H16.6c-0.4,0-0.7,0.4-0.7,0.8s0.3,0.8,0.7,0.8h25.6c0.4,0,0.7-0.4,0.7-0.8S42.6,35.9,42.2,35.9z"/>
<path class="st0" d="M42.2,42.1H24.6c-0.4,0-0.7,0.4-0.7,0.8c0,0.4,0.3,0.8,0.7,0.8h17.6c0.4,0,0.7-0.4,0.7-0.8
	C42.9,42.5,42.6,42.1,42.2,42.1z"/>
</svg>
