<?xml version="1.0" encoding="utf-8"?>
<!-- Generator: Adobe Illustrator 22.1.0, SVG Export Plug-In . SVG Version: 6.00 Build 0)  -->
<svg version="1.1" id="Livello_1" xmlns="http://www.w3.org/2000/svg" xmlns:xlink="http://www.w3.org/1999/xlink" x="0px" y="0px"
	 viewBox="0 0 60.2 60.6" style="enable-background:new 0 0 60.2 60.6;" xml:space="preserve">
<style type="text/css">
	.st0{fill:#FFFFFF;}
</style>
<title>Artboard 41 copy 73</title>
<path class="st0" d="M21.1,18.2h17.7c0.4,0,0.7-0.4,0.7-0.8c0-0.4-0.3-0.8-0.8-0.8H21.1c-0.4,0-0.7,0.4-0.7,0.8S20.8,18.2,21.1,18.2
	z"/>
<path class="st0" d="M17.2,24.5h25.6c0.4,0,0.7-0.4,0.7-0.8s-0.3-0.8-0.7-0.8H17.2c-0.4,0-0.7,0.4-0.7,0.8S16.8,24.5,17.2,24.5z"/>
<path class="st0" d="M21.1,29.3c-0.4,0-0.7,0.4-0.7,0.8s0.3,0.8,0.7,0.8h17.7c0.4,0,0.7-0.4,0.7-0.8s-0.3-0.8-0.7-0.8H21.1z"/>
<path class="st0" d="M42.8,35.4H17.2c-0.4,0-0.7,0.4-0.7,0.8c0,0.4,0.3,0.8,0.7,0.8h25.6c0.4,0,0.7-0.4,0.7-0.8
	C43.4,35.8,43.1,35.4,42.8,35.4z"/>
<path class="st0" d="M38.7,41.7H21.1c-0.4,0-0.7,0.4-0.7,0.8s0.3,0.8,0.7,0.8h17.7c0.4,0,0.7-0.4,0.7-0.8
	C39.4,42.1,39.2,41.7,38.7,41.7z"/>
</svg>
