<?xml version="1.0" encoding="utf-8"?>
<!-- Generator: Adobe Illustrator 22.1.0, SVG Export Plug-In . SVG Version: 6.00 Build 0)  -->
<svg version="1.1" id="Livello_1" xmlns="http://www.w3.org/2000/svg" xmlns:xlink="http://www.w3.org/1999/xlink" x="0px" y="0px"
	 viewBox="0 0 60.6 59.6" style="enable-background:new 0 0 60.6 59.6;" xml:space="preserve">
<style type="text/css">
	.st0{fill:#FFFFFF;}
</style>
<title>Artboard 41 copy 72</title>
<path class="st0" d="M17.6,17.8h17.7c0.4,0,0.7-0.3,0.7-0.8s-0.3-0.8-0.7-0.8H17.6c-0.4,0-0.7,0.3-0.7,0.8S17.2,17.8,17.6,17.8z"/>
<path class="st0" d="M17.6,24h25.7c0.4,0,0.7-0.3,0.7-0.8s-0.3-0.8-0.7-0.8H17.6c-0.4,0-0.7,0.4-0.7,0.8C16.9,23.6,17.2,24,17.6,24z
	"/>
<path class="st0" d="M17.6,30.4h17.7c0.4,0,0.7-0.3,0.7-0.8s-0.3-0.8-0.7-0.8H17.6c-0.4,0-0.7,0.3-0.7,0.8S17.2,30.4,17.6,30.4z"/>
<path class="st0" d="M43.3,35H17.6c-0.4,0-0.7,0.3-0.7,0.8c0,0.5,0.3,0.8,0.7,0.8h25.7c0.4,0,0.7-0.3,0.7-0.8
	C44,35.3,43.6,35,43.3,35z"/>
<path class="st0" d="M35.2,41.2H17.6c-0.4,0-0.7,0.3-0.7,0.8c0,0.5,0.3,0.8,0.7,0.8h17.7c0.4,0,0.7-0.3,0.7-0.8
	C36,41.5,35.7,41.2,35.2,41.2z"/>
</svg>
