<?xml version="1.0" encoding="utf-8"?>
<!-- Generator: Adobe Illustrator 22.1.0, SVG Export Plug-In . SVG Version: 6.00 Build 0)  -->
<svg version="1.1" id="Livello_1" xmlns:svgjs="http://svgjs.com/svgjs"
	 xmlns="http://www.w3.org/2000/svg" xmlns:xlink="http://www.w3.org/1999/xlink" x="0px" y="0px" viewBox="0 0 21.1 21.1"
	 style="enable-background:new 0 0 21.1 21.1;" xml:space="preserve">
<style type="text/css">
	.st0{fill:#FFFFFF;}
</style>
<g transform="matrix(0.9500000000000002,0,0,0.9499999999999997,9.705650604143756,9.705649948120225)">
	<g>
		<path class="st0" d="M0.9,0.7c2,0,3.6-2,3.6-4.4c0-2.4-0.5-4.4-3.6-4.4c-3.1,0-3.6,2-3.6,4.4C-2.7-1.3-1.1,0.7,0.9,0.7z"/>
		<path class="st0" d="M7.7,7.2C7.7,3,7.1,1.8,2.9,1c0,0-0.6,0.8-2,0.8S-1,1-1,1c-4.2,0.8-4.7,1.9-4.8,6c0,0.3,0,0.4,0,0.3
			c0,0.1,0,0.2,0,0.4c0,0,1,2,6.8,2s6.8-2,6.8-2c0-0.2,0-0.3,0-0.3C7.7,7.5,7.7,7.5,7.7,7.2z"/>
		<path class="st0" d="M5.9-0.1c1.6,0,2.9-1.6,2.9-3.6c0-2-0.4-3.6-2.9-3.6c-0.4,0-0.8,0-1.1,0.1C5.4-6,5.5-4.7,5.5-3.7
			c0,1.2-0.3,2.3-0.9,3.2C5-0.2,5.4-0.1,5.9-0.1z"/>
		<path class="st0" d="M11.4,5.2c-0.1-3.4-0.5-4.4-3.9-5c0,0-0.5,0.6-1.6,0.6c0,0-0.1,0-0.1,0c0.7,0.3,1.4,0.8,1.8,1.4
			c0.8,1.1,1,2.7,1.1,4.9c2.3-0.5,2.8-1.4,2.8-1.4c0-0.1,0-0.2,0-0.3C11.5,5.4,11.5,5.4,11.4,5.2z"/>
		<path class="st0" d="M-4.1-0.1c0.5,0,0.9-0.1,1.3-0.4c-0.6-0.9-0.9-2-0.9-3.2c0-1,0.1-2.3,0.7-3.4c-0.3-0.1-0.7-0.1-1.1-0.1
			C-6.6-7.2-7-5.6-7-3.7C-7-1.7-5.7-0.1-4.1-0.1z"/>
		<path class="st0" d="M-3.9,0.8c0,0-0.1,0-0.1,0c-1.1,0-1.6-0.6-1.6-0.6c-3.4,0.6-3.9,1.6-3.9,5c0,0.2,0,0.3,0,0.2
			c0,0.1,0,0.1,0,0.3c0,0,0.5,0.9,2.8,1.4c0-2.2,0.2-3.8,1.1-4.9C-5.3,1.6-4.7,1.1-3.9,0.8z"/>
	</g>
</g>
</svg>
